<svg width="187" height="60" viewBox="0 0 187 60" fill="none" xmlns="http://www.w3.org/2000/svg">
<path d="M69.4075 14.6576C69.4075 21.5525 67.2557 25 62.9522 25H59.3428V4.70392H63.0355C65.1271 4.70392 66.7097 5.55075 67.7833 7.2444C68.8661 8.9288 69.4075 11.3999 69.4075 14.6576ZM67.9776 14.7409C67.9776 11.8811 67.5565 9.70159 66.7143 8.20229C65.8721 6.70299 64.6273 5.95334 62.98 5.95334H60.7032V23.7506H62.8689C64.6273 23.7506 65.9184 22.9824 66.7421 21.4461C67.5658 19.9098 67.9776 17.6747 67.9776 14.7409ZM74.7334 25V4.70392H76.0938V25H74.7334ZM93.1225 14.8242C93.1225 18.1837 92.6182 20.7659 91.6094 22.5706C90.6098 24.3753 89.1614 25.2776 87.2642 25.2776C85.3484 25.2776 83.8954 24.3707 82.9051 22.5567C81.9148 20.7335 81.4197 18.1467 81.4197 14.7964C81.4197 11.2981 81.9102 8.6928 82.8912 6.98064C83.8722 5.26847 85.3438 4.41239 87.3058 4.41239C89.1938 4.41239 90.633 5.31475 91.6232 7.11946C92.6228 8.91492 93.1225 11.4832 93.1225 14.8242ZM82.8357 14.8242C82.8357 17.8413 83.2105 20.1226 83.9602 21.6682C84.7191 23.2045 85.8204 23.9727 87.2642 23.9727C88.7172 23.9727 89.8185 23.2092 90.5682 21.6821C91.3271 20.155 91.7065 17.8691 91.7065 14.8242C91.7065 11.8163 91.3363 9.54888 90.596 8.02182C89.8556 6.4855 88.7588 5.71734 87.3058 5.71734C85.8158 5.71734 84.6959 6.49475 83.9463 8.04958C83.2059 9.59516 82.8357 11.8534 82.8357 14.8242ZM109.152 25H107.416L99.7395 6.80017H99.6284C99.7395 8.05884 99.795 9.27123 99.795 10.4374V25H98.4623V4.70392H100.225L107.847 22.6955H107.93C107.856 21.1777 107.819 19.9098 107.819 18.8917V4.70392H109.152V25ZM115.158 25V4.70392H116.518V25H115.158ZM136.124 25L130.724 6.52252H130.613C130.705 8.46605 130.752 9.69696 130.752 10.2152V25H129.447V4.70392H131.46L136.013 20.2245C136.42 21.5942 136.684 22.7603 136.804 23.7228H136.915C137.008 23.038 137.295 21.8811 137.776 20.2522L142.288 4.70392H144.37V25H143.01V10.3263C143.01 9.75249 143.056 8.49382 143.149 6.55028H143.038L137.665 25H136.124ZM158.067 25L156.276 17.6423H151.348L149.585 25H148.169L153.056 4.70392H154.458L159.455 25H158.067ZM155.957 16.268L154.166 8.70206C153.981 7.8506 153.838 7.04542 153.736 6.28652C153.653 7.0917 153.523 7.89688 153.347 8.70206L151.612 16.268H155.957ZM164.615 16.1291V25H163.254V4.70392H166.031C168.011 4.70392 169.46 5.1713 170.376 6.10605C171.292 7.04079 171.75 8.43829 171.75 10.2985C171.75 11.7053 171.5 12.8621 171.001 13.7691C170.501 14.6761 169.663 15.3564 168.488 15.8098L172.514 25H170.987L167.197 16.1291H164.615ZM164.615 14.8797H166.517C167.748 14.8797 168.696 14.5003 169.363 13.7414C170.029 12.9825 170.362 11.8534 170.362 10.3541C170.362 8.827 170.02 7.72566 169.335 7.05005C168.659 6.37444 167.59 6.03663 166.128 6.03663H164.615V14.8797ZM184.573 25L182.782 17.6423H177.854L176.09 25H174.674L179.561 4.70392H180.963L185.961 25H184.573ZM182.462 16.268L180.672 8.70206C180.487 7.8506 180.343 7.04542 180.241 6.28652C180.158 7.0917 180.028 7.89688 179.853 8.70206L178.117 16.268H182.462Z" fill="#F3FFA7"/>
<path d="M64.9139 45.0244C65.2289 44.7095 65.5484 44.39 65.8724 44.066C66.1964 43.733 66.5114 43.3865 66.8174 43.0265C67.1234 42.6665 67.4069 42.293 67.6679 41.906C67.9379 41.51 68.1764 41.0915 68.3834 40.6505C68.4284 40.5515 68.4914 40.4795 68.5724 40.4345C68.6534 40.3805 68.7434 40.3535 68.8423 40.3535C68.9953 40.3535 69.1168 40.4075 69.2068 40.5155C69.3058 40.6235 69.3553 40.745 69.3553 40.88C69.3553 40.952 69.3418 41.0195 69.3148 41.0825C69.0358 41.6675 68.7164 42.203 68.3564 42.689C67.9964 43.175 67.6184 43.6385 67.2224 44.0795C66.8264 44.5115 66.4259 44.9299 66.0209 45.3349C65.6159 45.7489 65.2289 46.1629 64.8599 46.5769C64.8239 47.1979 64.8239 47.8189 64.8599 48.4399C64.8959 49.0699 64.9139 49.7359 64.9139 50.4378C64.9139 51.0138 64.8959 51.5898 64.8599 52.1658C64.8239 52.7418 64.7654 53.2908 64.6844 53.8128C64.6034 54.3438 64.4909 54.8388 64.3469 55.2978C64.2119 55.7567 64.0364 56.1527 63.8204 56.4857C63.6044 56.8277 63.3525 57.0932 63.0645 57.2822C62.7765 57.4802 62.439 57.5792 62.052 57.5792C61.413 57.5792 60.9225 57.3587 60.5805 56.9177C60.2385 56.4767 60.0675 55.8602 60.0675 55.0683C60.0675 54.6363 60.1125 54.1728 60.2025 53.6778C60.3015 53.1828 60.4365 52.6698 60.6075 52.1388C60.7785 51.6168 60.981 51.0858 61.215 50.5458C61.458 50.0059 61.719 49.4794 61.998 48.9664C62.277 48.4534 62.574 47.9629 62.889 47.4949C63.204 47.0359 63.5235 46.6174 63.8474 46.2394C63.8654 45.8074 63.8834 45.3574 63.9014 44.8894C63.9284 44.4305 63.9554 44.003 63.9824 43.607C63.7484 44.021 63.456 44.354 63.105 44.606C62.763 44.8579 62.385 44.9839 61.971 44.9839C61.287 44.9839 60.7515 44.7545 60.3645 44.2955C59.9775 43.8365 59.784 43.2065 59.784 42.4055C59.784 41.8205 59.838 41.2895 59.946 40.8125C60.063 40.3265 60.1845 39.9125 60.3105 39.5705C60.4455 39.2196 60.567 38.9541 60.675 38.7741C60.783 38.5851 60.837 38.4951 60.837 38.5041C60.936 38.3511 61.0755 38.2746 61.2555 38.2746C61.4085 38.2746 61.53 38.3286 61.62 38.4366C61.719 38.5356 61.7685 38.6526 61.7685 38.7876C61.7685 38.8866 61.7415 38.9766 61.6875 39.0576C61.6965 39.0486 61.6515 39.1251 61.5525 39.2871C61.4625 39.4401 61.359 39.665 61.242 39.962C61.134 40.259 61.0305 40.6145 60.9315 41.0285C60.8415 41.4425 60.7965 41.897 60.7965 42.392C60.7965 42.887 60.8865 43.274 61.0665 43.553C61.2465 43.832 61.539 43.9715 61.944 43.9715C62.457 43.9715 62.9205 43.5935 63.3345 42.8375C63.7484 42.0725 64.0994 40.9655 64.3874 39.5165C64.4054 39.3996 64.4594 39.3051 64.5494 39.2331C64.6394 39.1521 64.7474 39.1116 64.8734 39.1116C65.0174 39.1116 65.1389 39.1611 65.2379 39.2601C65.3369 39.3591 65.3864 39.4806 65.3864 39.6245C65.3864 39.6515 65.3684 39.8135 65.3324 40.1105C65.2964 40.3985 65.2514 40.7855 65.1974 41.2715C65.1524 41.7575 65.1029 42.3245 65.0489 42.9725C64.9949 43.6115 64.9499 44.2955 64.9139 45.0244ZM63.8339 47.8864C63.429 48.4714 63.0555 49.0879 62.7135 49.7359C62.3805 50.3838 62.0925 51.0273 61.8495 51.6663C61.6065 52.3053 61.4175 52.9173 61.2825 53.5023C61.1475 54.0873 61.08 54.6093 61.08 55.0683C61.08 55.5362 61.1565 55.9007 61.3095 56.1617C61.4625 56.4317 61.7055 56.5667 62.0385 56.5667C62.3355 56.5667 62.5965 56.4182 62.8215 56.1212C63.0555 55.8332 63.249 55.4192 63.402 54.8793C63.5639 54.3393 63.6854 53.6823 63.7664 52.9083C63.8474 52.1433 63.8879 51.2838 63.8879 50.3298C63.8879 49.9429 63.8789 49.5514 63.8609 49.1554C63.8519 48.7594 63.8429 48.3364 63.8339 47.8864ZM74.6202 43.3505C74.3952 43.3505 74.1972 43.3325 74.0263 43.2965C73.8913 43.5665 73.7293 43.8185 73.5403 44.0525C73.3513 44.2775 73.1308 44.4755 72.8788 44.6465C72.6358 44.8174 72.3613 44.9524 72.0553 45.0514C71.7493 45.1504 71.4163 45.1999 71.0563 45.1999C70.6333 45.1999 70.2463 45.1234 69.8953 44.9704C69.5443 44.8264 69.2383 44.624 68.9773 44.363C68.7164 44.093 68.5139 43.7735 68.3699 43.4045C68.2259 43.0265 68.1539 42.6125 68.1539 42.1625C68.1539 41.5865 68.2574 41.087 68.4644 40.664C68.6714 40.232 68.9098 39.8765 69.1798 39.5975C69.4498 39.3096 69.7198 39.0981 69.9898 38.9631C70.2598 38.8191 70.4623 38.7471 70.5973 38.7471C70.7503 38.7471 70.8628 38.7876 70.9348 38.8686C71.0158 38.9496 71.0563 39.0576 71.0563 39.1926C71.0563 39.3456 71.0068 39.4626 70.9078 39.5435C70.8178 39.6155 70.7008 39.6875 70.5568 39.7595C70.4128 39.8315 70.2598 39.935 70.0978 40.07C69.9358 40.196 69.7828 40.358 69.6388 40.556C69.5038 40.754 69.3913 40.988 69.3013 41.258C69.2113 41.528 69.1663 41.8295 69.1663 42.1625C69.1663 42.4595 69.2113 42.7385 69.3013 42.9995C69.3913 43.2515 69.5218 43.472 69.6928 43.661C69.8638 43.841 70.0663 43.985 70.3003 44.093C70.5343 44.192 70.7953 44.2415 71.0833 44.2415C71.5963 44.2415 72.0193 44.1245 72.3523 43.8905C72.6943 43.6475 72.9553 43.3415 73.1353 42.9725C72.6043 42.6935 72.1678 42.2975 71.8258 41.7845C71.4838 41.2715 71.3128 40.6955 71.3128 40.0565C71.3128 39.5435 71.4343 39.1251 71.6773 38.8011C71.9293 38.4771 72.2578 38.3151 72.6628 38.3151C72.9058 38.3151 73.1353 38.3736 73.3513 38.4906C73.5673 38.6076 73.7563 38.7921 73.9183 39.0441C74.0893 39.2961 74.2242 39.62 74.3232 40.016C74.4222 40.412 74.4717 40.8845 74.4717 41.4335C74.4717 41.7215 74.4357 42.023 74.3637 42.338C74.4177 42.347 74.4717 42.3515 74.5257 42.3515C74.5797 42.3515 74.6382 42.3515 74.7012 42.3515C75.0072 42.3515 75.2817 42.3155 75.5247 42.2435C75.7677 42.1715 75.9882 42.0635 76.1862 41.9195C76.3842 41.7755 76.5597 41.591 76.7127 41.366C76.8747 41.141 77.0277 40.88 77.1717 40.583C77.1987 40.529 77.2572 40.4795 77.3472 40.4345C77.4372 40.3805 77.5272 40.3535 77.6172 40.3535C77.7342 40.3535 77.8422 40.403 77.9412 40.502C78.0492 40.592 78.1032 40.7135 78.1032 40.8665C78.1032 40.9385 78.0852 41.0195 78.0492 41.1095C78.0132 41.1905 77.9772 41.267 77.9412 41.339C77.7882 41.609 77.6082 41.87 77.4012 42.122C77.2032 42.365 76.9647 42.581 76.6857 42.77C76.4157 42.95 76.1097 43.094 75.7677 43.202C75.4257 43.31 75.0432 43.3595 74.6202 43.3505ZM72.3118 39.9485C72.3118 40.1195 72.3343 40.2995 72.3793 40.4885C72.4243 40.6775 72.4918 40.8665 72.5818 41.0555C72.6808 41.2355 72.7978 41.411 72.9328 41.582C73.0768 41.744 73.2433 41.8835 73.4323 42.0005C73.4593 41.8115 73.4728 41.627 73.4728 41.447C73.4728 41.204 73.4548 40.9565 73.4188 40.7045C73.3828 40.4525 73.3288 40.223 73.2568 40.016C73.1938 39.8 73.1128 39.629 73.0138 39.503C72.9148 39.3681 72.7978 39.3006 72.6628 39.3006C72.6088 39.3006 72.5368 39.3411 72.4468 39.4221C72.3568 39.503 72.3118 39.6785 72.3118 39.9485ZM82.0316 46.1584C83.7236 43.9535 84.898 42.122 85.555 40.664C85.6 40.565 85.6585 40.493 85.7305 40.448C85.8115 40.394 85.9015 40.367 86.0005 40.367C86.1535 40.367 86.2795 40.421 86.3785 40.529C86.4775 40.628 86.527 40.745 86.527 40.88C86.527 40.943 86.5135 41.006 86.4865 41.069C86.0905 41.969 85.528 42.9725 84.799 44.0795C84.0701 45.1864 83.1476 46.4374 82.0316 47.8324C82.0316 48.3994 82.0361 48.9664 82.0451 49.5334C82.0541 50.1003 82.0586 50.7213 82.0586 51.3963C82.0586 52.0713 82.0406 52.7373 82.0046 53.3943C81.9776 54.0603 81.9236 54.6903 81.8426 55.2843C81.7616 55.8872 81.6491 56.4407 81.5051 56.9447C81.3701 57.4577 81.1901 57.8987 80.9651 58.2677C80.7491 58.6457 80.4836 58.9382 80.1686 59.1452C79.8626 59.3612 79.4981 59.4692 79.0752 59.4692C78.4722 59.4692 78.0087 59.2397 77.6847 58.7807C77.3607 58.3217 77.1987 57.6692 77.1987 56.8232C77.1987 56.3732 77.2392 55.8827 77.3202 55.3518C77.4102 54.8298 77.5362 54.2898 77.6982 53.7318C77.8602 53.1738 78.0537 52.6068 78.2787 52.0308C78.5127 51.4638 78.7692 50.9103 79.0482 50.3703C79.3272 49.8304 79.6286 49.3129 79.9526 48.8179C80.2856 48.3229 80.6366 47.8729 81.0056 47.4679C81.0146 46.8379 81.0191 46.2124 81.0191 45.5914C81.0281 44.9704 81.0416 44.399 81.0596 43.877C80.7896 44.219 80.4656 44.489 80.0876 44.687C79.7186 44.8849 79.3497 44.9839 78.9807 44.9839C78.6657 44.9839 78.3777 44.9254 78.1167 44.8084C77.8647 44.6825 77.6487 44.5115 77.4687 44.2955C77.2887 44.0705 77.1492 43.8095 77.0502 43.5125C76.9512 43.2155 76.9017 42.8915 76.9017 42.5405C76.9017 41.8385 77.0187 41.222 77.2527 40.691C77.4957 40.151 77.8017 39.701 78.1707 39.3411C78.5397 38.9811 78.9447 38.7111 79.3857 38.5311C79.8356 38.3511 80.2676 38.2611 80.6816 38.2611C80.9606 38.2611 81.2171 38.2971 81.4511 38.3691C81.6851 38.4411 81.8831 38.5221 82.0451 38.6121C82.2161 38.7021 82.3466 38.7876 82.4366 38.8686C82.5266 38.9496 82.5761 38.9946 82.5851 39.0036C82.6841 39.1116 82.7336 39.2331 82.7336 39.3681C82.7336 39.503 82.6841 39.6245 82.5851 39.7325C82.4861 39.8315 82.3691 39.881 82.2341 39.881C82.1081 39.881 81.9866 39.8315 81.8696 39.7325C81.8336 39.7055 81.7841 39.6695 81.7211 39.6245C81.6671 39.5705 81.5906 39.5165 81.4916 39.4626C81.4016 39.4086 81.2891 39.3636 81.1541 39.3276C81.0281 39.2916 80.8751 39.2736 80.6951 39.2736C80.4251 39.2736 80.1281 39.3366 79.8041 39.4626C79.4801 39.5795 79.1787 39.7685 78.8997 40.0295C78.6207 40.2905 78.3867 40.628 78.1977 41.042C78.0087 41.447 77.9142 41.9375 77.9142 42.5135C77.9142 42.9455 78.0087 43.2965 78.1977 43.5665C78.3867 43.8275 78.6792 43.958 79.0752 43.958C79.2642 43.958 79.4621 43.904 79.6691 43.796C79.8851 43.688 80.0921 43.5215 80.2901 43.2965C80.4881 43.0715 80.6591 42.788 80.8031 42.446C80.9561 42.104 81.0641 41.699 81.1271 41.231C81.1451 41.105 81.2036 41.0015 81.3026 40.9205C81.4016 40.8305 81.5186 40.7855 81.6536 40.7855C81.8066 40.7855 81.9236 40.8395 82.0046 40.9475C82.0946 41.0555 82.1396 41.177 82.1396 41.312C82.1396 41.321 82.1351 41.4605 82.1261 41.7305C82.1171 41.9915 82.1081 42.3425 82.0991 42.7835C82.0901 43.2245 82.0766 43.7375 82.0586 44.3225C82.0496 44.8984 82.0406 45.5104 82.0316 46.1584ZM81.0056 49.1149C80.5826 49.6999 80.2001 50.3343 79.8581 51.0183C79.5161 51.7113 79.2237 52.4088 78.9807 53.1108C78.7377 53.8128 78.5487 54.4923 78.4137 55.1493C78.2877 55.8152 78.2247 56.4092 78.2247 56.9312C78.2247 57.2642 78.2517 57.5297 78.3057 57.7277C78.3687 57.9257 78.4407 58.0787 78.5217 58.1867C78.6117 58.2947 78.7062 58.3667 78.8052 58.4027C78.9132 58.4387 79.0122 58.4567 79.1022 58.4567C79.3812 58.4567 79.6241 58.3442 79.8311 58.1192C80.0381 57.8942 80.2136 57.5927 80.3576 57.2147C80.5016 56.8457 80.6186 56.4182 80.7086 55.9322C80.7986 55.4462 80.8661 54.9423 80.9111 54.4203C80.9561 53.9073 80.9876 53.3943 81.0056 52.8813C81.0236 52.3683 81.0326 51.8958 81.0326 51.4638C81.0326 51.0768 81.0326 50.6898 81.0326 50.3028C81.0326 49.9159 81.0236 49.5199 81.0056 49.1149ZM96.0038 41.069C95.9678 41.141 95.8913 41.294 95.7743 41.528C95.6663 41.753 95.5223 42.014 95.3423 42.311C95.1714 42.608 94.9689 42.9185 94.7349 43.2425C94.5009 43.5665 94.2399 43.8635 93.9519 44.1335C93.6639 44.4035 93.3534 44.6285 93.0204 44.8084C92.6874 44.9794 92.3364 45.0649 91.9674 45.0649C91.4454 45.0649 91.0044 44.8984 90.6444 44.5655C90.2934 44.2325 90.0369 43.814 89.875 43.31C89.569 43.823 89.2045 44.2325 88.7815 44.5385C88.3585 44.8354 87.9355 44.9839 87.5125 44.9839C87.1795 44.9839 86.878 44.9254 86.608 44.8084C86.338 44.6825 86.1085 44.5115 85.9195 44.2955C85.7305 44.0705 85.582 43.8095 85.474 43.5125C85.375 43.2155 85.3255 42.8915 85.3255 42.5405C85.3255 41.8385 85.4425 41.222 85.6765 40.691C85.9195 40.151 86.2255 39.701 86.5945 39.3411C86.9635 38.9811 87.3685 38.7111 87.8095 38.5311C88.2595 38.3511 88.6915 38.2611 89.1055 38.2611C89.3845 38.2611 89.641 38.3016 89.875 38.3826C90.1089 38.4546 90.3069 38.5356 90.4689 38.6256C90.6399 38.7156 90.7704 38.8011 90.8604 38.8821C90.9504 38.9541 90.9999 38.9946 91.0089 39.0036C91.1079 39.1206 91.1574 39.2421 91.1574 39.3681C91.1574 39.503 91.1079 39.6245 91.0089 39.7325C90.9099 39.8315 90.7929 39.881 90.6579 39.881C90.5139 39.881 90.3924 39.8315 90.2934 39.7325C90.2754 39.7145 90.2349 39.683 90.1719 39.638C90.1089 39.584 90.0235 39.53 89.9155 39.4761C89.8075 39.4221 89.677 39.3771 89.524 39.3411C89.38 39.2961 89.2135 39.2736 89.0245 39.2736C88.7455 39.2736 88.4485 39.3366 88.1335 39.4626C87.8185 39.5885 87.5305 39.7865 87.2695 40.0565C87.0085 40.3175 86.788 40.6505 86.608 41.0555C86.437 41.4515 86.3515 41.924 86.3515 42.473C86.3515 42.644 86.3695 42.8195 86.4055 42.9995C86.4415 43.1705 86.5045 43.328 86.5945 43.472C86.6845 43.616 86.806 43.733 86.959 43.823C87.112 43.913 87.301 43.958 87.526 43.958C87.688 43.958 87.8725 43.904 88.0795 43.796C88.2955 43.688 88.498 43.5215 88.687 43.2965C88.885 43.0715 89.0605 42.788 89.2135 42.446C89.3755 42.104 89.488 41.699 89.551 41.231C89.569 41.105 89.6275 41.0015 89.7265 40.9205C89.8255 40.8305 89.9425 40.7855 90.0774 40.7855C90.2034 40.7855 90.3114 40.835 90.4014 40.934C90.5004 41.033 90.5544 41.1455 90.5634 41.2715C90.5724 41.4425 90.5904 41.6855 90.6174 42.0005C90.6444 42.3065 90.7029 42.6125 90.7929 42.9185C90.8919 43.2245 91.0359 43.49 91.2249 43.715C91.4139 43.94 91.6749 44.0525 92.0079 44.0525C92.2239 44.0525 92.4354 43.994 92.6424 43.877C92.8584 43.76 93.0654 43.607 93.2634 43.418C93.4704 43.22 93.6639 42.9995 93.8439 42.7565C94.0329 42.5045 94.2039 42.2525 94.3569 42.0005C94.5099 41.7485 94.6449 41.5055 94.7619 41.2715C94.8789 41.0375 94.9779 40.835 95.0589 40.664C95.1039 40.565 95.1669 40.4885 95.2479 40.4345C95.3378 40.3805 95.4323 40.3535 95.5313 40.3535C95.6843 40.3535 95.8058 40.412 95.8958 40.529C95.9948 40.637 96.0443 40.754 96.0443 40.88C96.0443 40.943 96.0308 41.006 96.0038 41.069ZM118.346 38.5986C118.346 38.7246 118.301 38.8371 118.211 38.9361C118.121 39.0261 117.99 39.0711 117.819 39.0711C117.693 39.0711 117.558 39.0666 117.414 39.0576C117.279 39.0486 117.081 39.0441 116.82 39.0441C116.685 39.0441 116.483 39.0531 116.213 39.0711C115.952 39.0801 115.65 39.0981 115.308 39.1251C114.975 39.1521 114.615 39.1836 114.228 39.2196C113.842 39.2466 113.45 39.2781 113.054 39.3141C113.063 39.3591 113.068 39.4311 113.068 39.53C113.068 40.403 112.874 41.177 112.487 41.852C112.109 42.527 111.601 43.0985 110.962 43.5665C110.332 44.0255 109.598 44.3765 108.761 44.6195C107.924 44.8534 107.056 44.9704 106.156 44.9704C105.508 44.9704 104.896 44.8804 104.32 44.7005C103.753 44.5205 103.253 44.2595 102.821 43.9175C102.398 43.5755 102.061 43.157 101.809 42.662C101.566 42.167 101.444 41.6 101.444 40.961C101.444 40.448 101.548 39.9755 101.755 39.5435C101.962 39.1116 102.241 38.7291 102.592 38.3961C102.952 38.0541 103.375 37.7661 103.861 37.5321C104.347 37.2981 104.873 37.1181 105.44 36.9921C105.278 36.9201 105.107 36.8211 104.927 36.6951C104.756 36.5601 104.599 36.4026 104.455 36.2226C104.311 36.0336 104.189 35.8221 104.09 35.5881C104 35.3451 103.955 35.0796 103.955 34.7916C103.955 34.1077 104.108 33.5137 104.414 33.0097C104.729 32.5057 105.13 32.0872 105.616 31.7542C106.102 31.4212 106.637 31.1737 107.222 31.0117C107.816 30.8497 108.392 30.7687 108.95 30.7687C109.436 30.7687 109.886 30.8272 110.3 30.9442C110.723 31.0522 111.083 31.2097 111.38 31.4167C111.686 31.6147 111.925 31.8622 112.096 32.1592C112.276 32.4472 112.366 32.7667 112.366 33.1177C112.366 33.4147 112.307 33.6982 112.19 33.9682C112.073 34.2291 111.911 34.4586 111.704 34.6566C111.506 34.8546 111.268 35.0121 110.989 35.1291C110.719 35.2371 110.422 35.2911 110.098 35.2911C109.81 35.2911 109.553 35.2506 109.328 35.1696C109.112 35.0796 108.928 34.9761 108.775 34.8591C108.622 34.7331 108.505 34.6071 108.424 34.4811C108.343 34.3461 108.302 34.2336 108.302 34.1437C108.302 33.9997 108.347 33.8782 108.437 33.7792C108.536 33.6802 108.658 33.6307 108.802 33.6307C108.901 33.6307 108.977 33.6577 109.031 33.7117C109.085 33.7567 109.139 33.8107 109.193 33.8737C109.283 33.9817 109.391 34.0897 109.517 34.1977C109.652 34.3056 109.864 34.3596 110.152 34.3596C110.35 34.3596 110.521 34.3281 110.665 34.2651C110.809 34.1932 110.93 34.1032 111.029 33.9952C111.128 33.8782 111.2 33.7522 111.245 33.6172C111.299 33.4732 111.326 33.3337 111.326 33.1987C111.326 33.0277 111.277 32.8567 111.178 32.6857C111.088 32.5147 110.948 32.3617 110.759 32.2267C110.57 32.0917 110.327 31.9837 110.03 31.9027C109.733 31.8217 109.382 31.7812 108.977 31.7812C108.572 31.7812 108.136 31.8397 107.668 31.9567C107.209 32.0647 106.777 32.2357 106.372 32.4697C105.976 32.6947 105.643 32.9917 105.373 33.3607C105.112 33.7207 104.981 34.1482 104.981 34.6431C104.981 34.9671 105.035 35.2416 105.143 35.4666C105.26 35.6826 105.418 35.8626 105.616 36.0066C105.814 36.1506 106.048 36.2676 106.318 36.3576C106.597 36.4386 106.903 36.5106 107.236 36.5736C107.362 36.6006 107.479 36.6276 107.587 36.6546C107.704 36.6726 107.803 36.7041 107.884 36.7491C107.974 36.7851 108.041 36.8391 108.086 36.9111C108.14 36.9741 108.167 37.0641 108.167 37.1811C108.167 37.3251 108.118 37.4421 108.019 37.5321C107.929 37.6131 107.803 37.6536 107.641 37.6536C107.479 37.6536 107.24 37.6626 106.925 37.6806C106.61 37.6986 106.259 37.7481 105.872 37.8291C105.494 37.9011 105.103 38.0091 104.698 38.1531C104.293 38.2881 103.924 38.4816 103.591 38.7336C103.267 38.9766 102.997 39.2781 102.781 39.638C102.574 39.998 102.47 40.4345 102.47 40.9475C102.47 41.4605 102.565 41.9105 102.754 42.2975C102.952 42.6755 103.217 42.9905 103.55 43.2425C103.883 43.4855 104.27 43.67 104.711 43.796C105.161 43.913 105.643 43.9715 106.156 43.9715C106.876 43.9715 107.587 43.886 108.289 43.715C109 43.535 109.634 43.265 110.192 42.905C110.75 42.545 111.2 42.0905 111.542 41.5415C111.893 40.9925 112.069 40.349 112.069 39.611C112.069 39.575 112.064 39.5435 112.055 39.5165C112.055 39.4806 112.055 39.4401 112.055 39.3951C111.569 39.4401 111.128 39.4851 110.732 39.53C110.345 39.566 110.039 39.593 109.814 39.611C109.742 39.62 109.679 39.629 109.625 39.638C109.58 39.638 109.544 39.638 109.517 39.638C109.364 39.638 109.234 39.593 109.126 39.503C109.018 39.4131 108.964 39.2826 108.964 39.1116C108.964 38.9856 109.004 38.8776 109.085 38.7876C109.175 38.6886 109.292 38.6301 109.436 38.6121C109.697 38.5851 110.035 38.5491 110.449 38.5041C110.863 38.4591 111.313 38.4186 111.799 38.3826C112.294 38.3376 112.802 38.2971 113.324 38.2611C113.846 38.2161 114.341 38.1756 114.809 38.1396C115.286 38.1036 115.718 38.0766 116.105 38.0586C116.501 38.0406 116.816 38.0316 117.05 38.0316C117.554 38.0316 117.896 38.0766 118.076 38.1666C118.256 38.2566 118.346 38.4006 118.346 38.5986ZM133.169 31.3222C133.169 31.4662 133.119 31.5832 133.02 31.6732C132.921 31.7542 132.8 31.7947 132.656 31.7947H125.811V31.9432C125.811 32.4922 125.771 33.0772 125.69 33.6982C125.609 34.3191 125.496 34.9401 125.352 35.5611C125.217 36.1731 125.06 36.7716 124.88 37.3566C124.709 37.9416 124.529 38.4816 124.34 38.9766C124.16 39.4716 123.98 39.9035 123.8 40.2725C123.62 40.6325 123.458 40.9025 123.314 41.0825C123.431 41.4965 123.57 41.8835 123.732 42.2435C123.894 42.5945 124.074 42.905 124.272 43.175C124.479 43.436 124.7 43.643 124.934 43.796C125.168 43.949 125.42 44.0255 125.69 44.0255C126.005 44.0255 126.315 43.895 126.621 43.634C126.936 43.364 127.224 43.049 127.485 42.689C127.755 42.32 127.989 41.951 128.187 41.582C128.394 41.204 128.543 40.9025 128.633 40.6775C128.723 40.4615 128.88 40.3535 129.105 40.3535C129.258 40.3535 129.38 40.4075 129.47 40.5155C129.569 40.6235 129.618 40.7405 129.618 40.8665C129.618 40.9295 129.605 40.9925 129.578 41.0555C129.551 41.1185 129.483 41.2625 129.375 41.4875C129.276 41.7125 129.141 41.9735 128.97 42.2705C128.808 42.5675 128.615 42.8825 128.39 43.2155C128.174 43.5395 127.926 43.8365 127.647 44.1065C127.377 44.3765 127.085 44.6015 126.77 44.7815C126.455 44.9614 126.122 45.0514 125.771 45.0514C125.15 45.0514 124.592 44.8489 124.097 44.444C123.602 44.039 123.179 43.472 122.828 42.743C122.486 42.014 122.225 41.15 122.045 40.151C121.865 39.1521 121.775 38.0586 121.775 36.8706C121.775 36.5736 121.779 36.2271 121.788 35.8311C121.797 35.4261 121.815 35.0031 121.842 34.5621C121.869 34.1122 121.91 33.6532 121.964 33.1852C122.018 32.7082 122.09 32.2447 122.18 31.7947H117.333C117.189 31.7947 117.068 31.7542 116.969 31.6732C116.87 31.5832 116.82 31.4662 116.82 31.3222C116.82 31.1782 116.87 31.0657 116.969 30.9847C117.068 30.8947 117.189 30.8497 117.333 30.8497H122.409C122.499 30.5257 122.603 30.2287 122.72 29.9587C122.846 29.6887 122.985 29.4547 123.138 29.2567C123.3 29.0587 123.476 28.9057 123.665 28.7978C123.863 28.6808 124.079 28.6223 124.313 28.6223C124.538 28.6223 124.731 28.6808 124.893 28.7978C125.064 28.9057 125.208 29.0587 125.325 29.2567C125.442 29.4547 125.532 29.6887 125.595 29.9587C125.667 30.2287 125.721 30.5257 125.757 30.8497H132.656C132.8 30.8497 132.921 30.8947 133.02 30.9847C133.119 31.0657 133.169 31.1782 133.169 31.3222ZM123.003 39.7325C123.273 39.1386 123.516 38.4996 123.732 37.8156C123.957 37.1226 124.146 36.4251 124.299 35.7231C124.461 35.0211 124.583 34.3326 124.664 33.6577C124.754 32.9827 124.799 32.3617 124.799 31.7947H123.206C123.08 32.3527 122.976 33.0457 122.895 33.8737C122.823 34.6926 122.787 35.6916 122.787 36.8706C122.787 37.5276 122.805 38.0811 122.841 38.5311C122.877 38.9721 122.931 39.3726 123.003 39.7325ZM124.259 29.6347C124.178 29.6347 124.061 29.7247 123.908 29.9047C123.755 30.0757 123.602 30.3907 123.449 30.8497H124.745C124.7 30.4717 124.632 30.1747 124.542 29.9587C124.461 29.7427 124.367 29.6347 124.259 29.6347ZM123.219 40.7045V40.718V40.7045ZM130.307 43.3505C130.496 43.6115 130.739 43.823 131.036 43.985C131.333 44.138 131.697 44.2145 132.129 44.2145C132.57 44.2145 132.971 44.111 133.331 43.904C133.691 43.688 134.019 43.409 134.316 43.067C134.613 42.725 134.879 42.3425 135.113 41.9195C135.347 41.4965 135.558 41.0735 135.747 40.6505C135.792 40.5515 135.855 40.4795 135.936 40.4345C136.017 40.3805 136.107 40.3535 136.206 40.3535C136.359 40.3535 136.481 40.4075 136.571 40.5155C136.67 40.6235 136.719 40.7405 136.719 40.8665C136.719 40.9115 136.715 40.952 136.706 40.988C136.697 41.015 136.683 41.0465 136.665 41.0825C136.044 42.4505 135.365 43.481 134.627 44.174C133.898 44.8669 133.07 45.2224 132.143 45.2404C131.549 45.2404 131.036 45.1234 130.604 44.8894C130.172 44.6645 129.816 44.372 129.537 44.012C129.258 43.643 129.051 43.229 128.916 42.77C128.781 42.311 128.714 41.852 128.714 41.393C128.714 40.934 128.768 40.511 128.876 40.124C128.993 39.737 129.155 39.3996 129.362 39.1116C129.578 38.8236 129.83 38.5986 130.118 38.4366C130.415 38.2746 130.739 38.1936 131.09 38.1936C131.297 38.1936 131.499 38.2386 131.697 38.3286C131.904 38.4096 132.089 38.5311 132.251 38.6931C132.413 38.8461 132.543 39.0351 132.642 39.2601C132.741 39.4851 132.791 39.7415 132.791 40.0295C132.791 40.3985 132.728 40.745 132.602 41.069C132.476 41.393 132.3 41.6945 132.075 41.9735C131.859 42.2525 131.598 42.509 131.292 42.743C130.986 42.977 130.658 43.1795 130.307 43.3505ZM129.902 42.473C130.181 42.356 130.433 42.2075 130.658 42.0275C130.892 41.8475 131.09 41.6495 131.252 41.4335C131.414 41.2175 131.54 40.9925 131.63 40.7585C131.72 40.5155 131.765 40.2725 131.765 40.0295C131.765 39.7595 131.697 39.557 131.562 39.4221C131.427 39.2781 131.27 39.2061 131.09 39.2061C130.847 39.2061 130.64 39.2736 130.469 39.4086C130.298 39.5435 130.158 39.719 130.05 39.935C129.942 40.151 129.861 40.394 129.807 40.664C129.762 40.925 129.74 41.186 129.74 41.447C129.74 41.609 129.753 41.78 129.78 41.96C129.816 42.14 129.857 42.311 129.902 42.473ZM137.178 39.2871C137.142 39.53 137.097 39.7595 137.043 39.9755C136.989 40.1825 136.935 40.367 136.881 40.529C136.836 40.682 136.796 40.808 136.76 40.907C136.724 41.006 136.701 41.06 136.692 41.069C136.602 41.276 136.445 41.3795 136.22 41.3795C136.094 41.3795 135.977 41.3345 135.869 41.2445C135.761 41.1455 135.707 41.024 135.707 40.88C135.707 40.826 135.716 40.7855 135.734 40.7585C135.752 40.7315 135.779 40.6775 135.815 40.5965C135.851 40.5155 135.896 40.3805 135.95 40.1915C136.004 40.0025 136.071 39.71 136.152 39.3141C135.999 39.3141 135.842 39.3096 135.68 39.3006C135.518 39.2916 135.369 39.2601 135.234 39.2061C135.09 39.1521 134.973 39.0666 134.883 38.9496C134.793 38.8326 134.748 38.6706 134.748 38.4636C134.748 38.3106 134.793 38.1036 134.883 37.8426C134.964 37.5816 135.077 37.3251 135.221 37.0731C135.365 36.8211 135.527 36.6051 135.707 36.4251C135.887 36.2361 136.067 36.1416 136.247 36.1416C136.454 36.1416 136.62 36.2181 136.746 36.3711C136.881 36.5241 136.985 36.7131 137.057 36.9381C137.129 37.1541 137.178 37.3836 137.205 37.6266C137.241 37.8696 137.259 38.0811 137.259 38.2611C137.412 38.2611 137.561 38.2611 137.705 38.2611C137.858 38.2521 138.002 38.2476 138.137 38.2476C138.65 38.2476 139.041 38.3601 139.311 38.5851C139.581 38.8101 139.716 39.1791 139.716 39.692C139.716 39.899 139.703 40.115 139.676 40.34C139.649 40.565 139.617 40.799 139.581 41.042C139.545 41.276 139.514 41.51 139.487 41.744C139.46 41.978 139.446 42.2075 139.446 42.4325C139.446 42.7565 139.491 43.0265 139.581 43.2425C139.671 43.4495 139.784 43.616 139.919 43.742C140.054 43.868 140.198 43.958 140.351 44.012C140.503 44.057 140.643 44.0795 140.769 44.0795C141.156 44.0795 141.52 43.9535 141.862 43.7015C142.204 43.4495 142.519 43.148 142.807 42.797C143.095 42.437 143.352 42.059 143.577 41.663C143.811 41.267 144.004 40.9205 144.157 40.6235C144.202 40.5425 144.265 40.4795 144.346 40.4345C144.427 40.3895 144.513 40.367 144.603 40.367C144.765 40.367 144.891 40.421 144.981 40.529C145.071 40.628 145.116 40.7405 145.116 40.8665C145.116 40.9565 145.098 41.0375 145.062 41.1095C144.855 41.4785 144.612 41.897 144.333 42.365C144.063 42.824 143.752 43.256 143.401 43.661C143.05 44.066 142.654 44.408 142.213 44.687C141.781 44.9659 141.304 45.1054 140.782 45.1054C140.458 45.1054 140.153 45.0424 139.865 44.9164C139.577 44.7994 139.325 44.6285 139.109 44.4035C138.902 44.1695 138.735 43.886 138.609 43.553C138.483 43.211 138.42 42.8285 138.42 42.4055C138.42 41.9555 138.465 41.51 138.555 41.069C138.645 40.619 138.69 40.1915 138.69 39.7865C138.69 39.6155 138.65 39.4896 138.569 39.4086C138.497 39.3186 138.33 39.2736 138.069 39.2736C137.943 39.2736 137.804 39.2736 137.651 39.2736C137.507 39.2736 137.349 39.2781 137.178 39.2871ZM136.274 38.2881C136.274 38.2251 136.269 38.1441 136.26 38.0451C136.26 37.9371 136.251 37.8336 136.233 37.7346C136.224 37.6356 136.206 37.5501 136.179 37.4781C136.161 37.4061 136.139 37.3701 136.112 37.3701C136.085 37.3701 136.049 37.4061 136.004 37.4781C135.968 37.5411 135.927 37.6221 135.882 37.7211C135.837 37.8111 135.797 37.9101 135.761 38.0181C135.725 38.1261 135.698 38.2161 135.68 38.2881H136.274ZM154.593 41.069C154.557 41.141 154.48 41.294 154.363 41.528C154.255 41.753 154.111 42.014 153.931 42.311C153.76 42.608 153.558 42.9185 153.324 43.2425C153.09 43.5665 152.829 43.8635 152.541 44.1335C152.253 44.4035 151.942 44.6285 151.609 44.8084C151.276 44.9794 150.925 45.0649 150.556 45.0649C150.034 45.0649 149.593 44.8984 149.233 44.5655C148.882 44.2325 148.626 43.814 148.464 43.31C148.158 43.823 147.793 44.2325 147.37 44.5385C146.947 44.8354 146.524 44.9839 146.101 44.9839C145.768 44.9839 145.467 44.9254 145.197 44.8084C144.927 44.6825 144.697 44.5115 144.508 44.2955C144.319 44.0705 144.171 43.8095 144.063 43.5125C143.964 43.2155 143.914 42.8915 143.914 42.5405C143.914 41.8385 144.031 41.222 144.265 40.691C144.508 40.151 144.814 39.701 145.183 39.3411C145.552 38.9811 145.957 38.7111 146.398 38.5311C146.848 38.3511 147.28 38.2611 147.694 38.2611C147.973 38.2611 148.23 38.3016 148.464 38.3826C148.698 38.4546 148.896 38.5356 149.058 38.6256C149.229 38.7156 149.359 38.8011 149.449 38.8821C149.539 38.9541 149.589 38.9946 149.598 39.0036C149.697 39.1206 149.746 39.2421 149.746 39.3681C149.746 39.503 149.697 39.6245 149.598 39.7325C149.499 39.8315 149.382 39.881 149.247 39.881C149.103 39.881 148.981 39.8315 148.882 39.7325C148.864 39.7145 148.824 39.683 148.761 39.638C148.698 39.584 148.612 39.53 148.504 39.4761C148.396 39.4221 148.266 39.3771 148.113 39.3411C147.969 39.2961 147.802 39.2736 147.613 39.2736C147.334 39.2736 147.037 39.3366 146.722 39.4626C146.407 39.5885 146.119 39.7865 145.858 40.0565C145.597 40.3175 145.377 40.6505 145.197 41.0555C145.026 41.4515 144.94 41.924 144.94 42.473C144.94 42.644 144.958 42.8195 144.994 42.9995C145.03 43.1705 145.093 43.328 145.183 43.472C145.273 43.616 145.395 43.733 145.548 43.823C145.701 43.913 145.89 43.958 146.115 43.958C146.277 43.958 146.461 43.904 146.668 43.796C146.884 43.688 147.087 43.5215 147.276 43.2965C147.474 43.0715 147.649 42.788 147.802 42.446C147.964 42.104 148.077 41.699 148.14 41.231C148.158 41.105 148.216 41.0015 148.315 40.9205C148.414 40.8305 148.531 40.7855 148.666 40.7855C148.792 40.7855 148.9 40.835 148.99 40.934C149.089 41.033 149.143 41.1455 149.152 41.2715C149.161 41.4425 149.179 41.6855 149.206 42.0005C149.233 42.3065 149.292 42.6125 149.382 42.9185C149.481 43.2245 149.625 43.49 149.814 43.715C150.003 43.94 150.264 44.0525 150.597 44.0525C150.813 44.0525 151.024 43.994 151.231 43.877C151.447 43.76 151.654 43.607 151.852 43.418C152.059 43.22 152.253 42.9995 152.433 42.7565C152.622 42.5045 152.793 42.2525 152.946 42.0005C153.099 41.7485 153.234 41.5055 153.351 41.2715C153.468 41.0375 153.567 40.835 153.648 40.664C153.693 40.565 153.756 40.4885 153.837 40.4345C153.927 40.3805 154.021 40.3535 154.12 40.3535C154.273 40.3535 154.395 40.412 154.485 40.529C154.584 40.637 154.633 40.754 154.633 40.88C154.633 40.943 154.62 41.006 154.593 41.069ZM160.587 41.069C160.587 41.897 160.438 42.6035 160.141 43.1885C159.844 43.7735 159.48 44.219 159.048 44.525H159.102C159.633 44.525 160.114 44.408 160.546 44.174C160.987 43.931 161.383 43.625 161.734 43.256C162.085 42.878 162.4 42.4595 162.679 42.0005C162.958 41.5415 163.206 41.096 163.422 40.664C163.467 40.565 163.53 40.4885 163.611 40.4345C163.701 40.3805 163.795 40.3535 163.894 40.3535C164.047 40.3535 164.169 40.4075 164.259 40.5155C164.349 40.6235 164.394 40.7405 164.394 40.8665C164.394 40.9385 164.38 41.006 164.353 41.069C164.119 41.591 163.84 42.1175 163.516 42.6485C163.192 43.1705 162.814 43.643 162.382 44.066C161.95 44.489 161.464 44.8309 160.924 45.0919C160.384 45.3619 159.786 45.4969 159.129 45.4969C158.652 45.4969 158.188 45.4204 157.738 45.2674C157.288 45.1234 156.892 44.8939 156.55 44.579C156.424 44.48 156.316 44.3765 156.226 44.2685C156.136 44.1515 156.064 44.0435 156.01 43.9445C155.992 43.9265 155.983 43.9085 155.983 43.8905C155.929 43.8095 155.902 43.724 155.902 43.634C155.902 43.517 155.943 43.409 156.024 43.31C156.033 43.292 156.042 43.283 156.051 43.283C156.06 43.274 156.069 43.265 156.078 43.256C156.168 43.175 156.267 43.13 156.375 43.121H156.415C156.46 43.121 156.492 43.1255 156.51 43.1345C156.519 43.1345 156.523 43.139 156.523 43.148C156.532 43.148 156.541 43.148 156.55 43.148C156.577 43.148 156.609 43.157 156.645 43.175C156.654 43.184 156.663 43.1885 156.672 43.1885C156.753 43.2425 156.82 43.31 156.874 43.391C156.937 43.499 157.009 43.598 157.09 43.688C157.162 43.76 157.248 43.8275 157.347 43.8905C157.446 43.9445 157.558 43.9715 157.684 43.9715C157.909 43.9715 158.134 43.904 158.359 43.769C158.584 43.634 158.787 43.4405 158.967 43.1885C159.147 42.9365 159.291 42.6305 159.399 42.2705C159.516 41.9105 159.574 41.51 159.574 41.069C159.574 40.745 159.538 40.4705 159.466 40.2455C159.403 40.0115 159.318 39.8225 159.21 39.6785C159.111 39.5345 159.003 39.4311 158.886 39.3681C158.769 39.2961 158.656 39.2601 158.548 39.2601C158.305 39.2601 158.058 39.3861 157.806 39.638C157.563 39.89 157.32 40.2095 157.077 40.5965C156.834 40.9835 156.591 41.411 156.348 41.879C156.114 42.347 155.875 42.8015 155.632 43.2425C155.614 44.7005 155.587 46.0909 155.551 47.4139C155.524 48.7369 155.47 49.9654 155.389 51.0993C155.317 52.2333 155.214 53.2593 155.079 54.1773C154.944 55.0953 154.759 55.8782 154.525 56.5262C154.291 57.1832 154.003 57.6872 153.661 58.0382C153.319 58.3892 152.901 58.5647 152.406 58.5647C152.253 58.5647 152.077 58.5332 151.879 58.4702C151.681 58.4072 151.497 58.2767 151.326 58.0787C151.155 57.8897 151.011 57.6152 150.894 57.2552C150.777 56.8952 150.718 56.4137 150.718 55.8107C150.718 55.0458 150.813 54.1593 151.002 53.1513C151.191 52.1433 151.461 51.0723 151.812 49.9384C152.154 48.8134 152.563 47.6569 153.04 46.4689C153.517 45.2809 154.044 44.1245 154.62 42.9995C154.62 42.6845 154.62 42.374 154.62 42.068C154.629 41.762 154.633 41.465 154.633 41.177C154.516 41.312 154.377 41.3795 154.215 41.3795C154.062 41.3795 153.94 41.3255 153.85 41.2175C153.76 41.1095 153.715 40.9925 153.715 40.8665C153.715 40.8035 153.729 40.736 153.756 40.664C153.972 40.169 154.138 39.701 154.255 39.2601C154.372 38.8101 154.458 38.4186 154.512 38.0856C154.575 37.7436 154.611 37.4736 154.62 37.2756C154.629 37.0776 154.633 36.9741 154.633 36.9651C154.633 36.8301 154.683 36.7131 154.782 36.6141C154.881 36.5151 155.002 36.4656 155.146 36.4656C155.281 36.4656 155.398 36.5151 155.497 36.6141C155.596 36.7041 155.646 36.8211 155.646 36.9651V41.1095C155.853 40.7585 156.06 40.412 156.267 40.07C156.474 39.728 156.69 39.4221 156.915 39.1521C157.149 38.8821 157.396 38.6661 157.657 38.5041C157.927 38.3331 158.224 38.2476 158.548 38.2476C158.854 38.2476 159.133 38.3196 159.385 38.4636C159.637 38.6076 159.853 38.8056 160.033 39.0576C160.213 39.3096 160.348 39.611 160.438 39.962C160.537 40.304 160.587 40.673 160.587 41.069ZM154.593 45.4024C154.152 46.3924 153.751 47.3869 153.391 48.3859C153.04 49.3849 152.743 50.3478 152.5 51.2748C152.248 52.2018 152.055 53.0703 151.92 53.8803C151.785 54.6903 151.717 55.4012 151.717 56.0132C151.717 56.1662 151.726 56.3327 151.744 56.5127C151.762 56.6927 151.798 56.8592 151.852 57.0122C151.906 57.1652 151.983 57.2912 152.082 57.3902C152.181 57.4982 152.311 57.5522 152.473 57.5522C152.77 57.5522 153.027 57.3632 153.243 56.9852C153.459 56.6162 153.639 56.1122 153.783 55.4732C153.936 54.8433 154.062 54.1143 154.161 53.2863C154.26 52.4673 154.336 51.6078 154.39 50.7078C154.453 49.8079 154.498 48.8989 154.525 47.9809C154.552 47.0719 154.575 46.2124 154.593 45.4024ZM165.636 34.2381C165.636 34.5801 165.514 34.8726 165.271 35.1156C165.037 35.3496 164.749 35.4666 164.407 35.4666C164.065 35.4666 163.773 35.3496 163.53 35.1156C163.296 34.8726 163.179 34.5801 163.179 34.2381C163.179 34.0672 163.21 33.9097 163.273 33.7657C163.336 33.6127 163.422 33.4822 163.53 33.3742C163.647 33.2572 163.777 33.1672 163.921 33.1042C164.074 33.0412 164.236 33.0097 164.407 33.0097C164.578 33.0097 164.736 33.0412 164.88 33.1042C165.033 33.1672 165.163 33.2572 165.271 33.3742C165.388 33.4822 165.478 33.6127 165.541 33.7657C165.604 33.9097 165.636 34.0672 165.636 34.2381ZM163.449 42.149C163.449 40.853 163.53 39.5615 163.692 38.2746C163.71 38.1486 163.764 38.0406 163.854 37.9506C163.953 37.8516 164.079 37.8021 164.232 37.8021C164.367 37.8021 164.479 37.8561 164.569 37.9641C164.659 38.0631 164.704 38.1801 164.704 38.3151C164.704 38.3691 164.691 38.5311 164.664 38.8011C164.646 39.0711 164.619 39.3951 164.583 39.773C164.556 40.142 164.529 40.538 164.502 40.961C164.484 41.375 164.475 41.7575 164.475 42.1085C164.475 42.5855 164.52 42.9725 164.61 43.2695C164.709 43.5575 164.83 43.7825 164.974 43.9445C165.127 44.1065 165.285 44.2145 165.447 44.2685C165.618 44.3225 165.78 44.3495 165.933 44.3495C166.185 44.3495 166.446 44.2595 166.716 44.0795C166.985 43.8995 167.26 43.6475 167.539 43.3235C167.827 42.9995 168.115 42.6125 168.403 42.1625C168.691 41.7035 168.974 41.195 169.253 40.637C169.298 40.547 169.361 40.4795 169.442 40.4345C169.523 40.3805 169.613 40.3535 169.712 40.3535C169.856 40.3535 169.973 40.4075 170.063 40.5155C170.162 40.6235 170.212 40.7405 170.212 40.8665C170.212 40.9565 170.194 41.033 170.158 41.096C170.05 41.303 169.915 41.555 169.753 41.852C169.591 42.149 169.406 42.455 169.199 42.77C168.992 43.085 168.763 43.4 168.511 43.715C168.268 44.021 168.007 44.3 167.728 44.552C167.449 44.7949 167.156 44.9929 166.85 45.1459C166.545 45.2989 166.234 45.3754 165.919 45.3754C165.514 45.3754 165.159 45.2899 164.853 45.1189C164.547 44.9479 164.286 44.7185 164.07 44.4305C163.863 44.1425 163.705 43.805 163.597 43.418C163.498 43.022 163.449 42.599 163.449 42.149ZM164.88 34.2381C164.88 34.1122 164.83 34.0042 164.731 33.9142C164.641 33.8152 164.533 33.7657 164.407 33.7657C164.281 33.7657 164.173 33.8152 164.083 33.9142C163.993 34.0042 163.948 34.1122 163.948 34.2381C163.948 34.3641 163.993 34.4721 164.083 34.5621C164.173 34.6521 164.281 34.6971 164.407 34.6971C164.533 34.6971 164.641 34.6521 164.731 34.5621C164.83 34.4721 164.88 34.3641 164.88 34.2381ZM179.675 41.069C179.639 41.141 179.563 41.294 179.446 41.528C179.338 41.753 179.194 42.014 179.014 42.311C178.843 42.608 178.64 42.9185 178.406 43.2425C178.172 43.5665 177.911 43.8635 177.623 44.1335C177.335 44.4035 177.025 44.6285 176.692 44.8084C176.359 44.9794 176.008 45.0649 175.639 45.0649C175.117 45.0649 174.676 44.8984 174.316 44.5655C173.965 44.2325 173.708 43.814 173.546 43.31C173.24 43.823 172.876 44.2325 172.453 44.5385C172.03 44.8354 171.607 44.9839 171.184 44.9839C170.851 44.9839 170.549 44.9254 170.279 44.8084C170.009 44.6825 169.78 44.5115 169.591 44.2955C169.402 44.0705 169.253 43.8095 169.145 43.5125C169.046 43.2155 168.997 42.8915 168.997 42.5405C168.997 41.8385 169.114 41.222 169.348 40.691C169.591 40.151 169.897 39.701 170.266 39.3411C170.635 38.9811 171.04 38.7111 171.481 38.5311C171.931 38.3511 172.363 38.2611 172.777 38.2611C173.056 38.2611 173.312 38.3016 173.546 38.3826C173.78 38.4546 173.978 38.5356 174.14 38.6256C174.311 38.7156 174.442 38.8011 174.532 38.8821C174.622 38.9541 174.671 38.9946 174.68 39.0036C174.779 39.1206 174.829 39.2421 174.829 39.3681C174.829 39.503 174.779 39.6245 174.68 39.7325C174.581 39.8315 174.464 39.881 174.329 39.881C174.185 39.881 174.064 39.8315 173.965 39.7325C173.947 39.7145 173.906 39.683 173.843 39.638C173.78 39.584 173.695 39.53 173.587 39.4761C173.479 39.4221 173.348 39.3771 173.195 39.3411C173.051 39.2961 172.885 39.2736 172.696 39.2736C172.417 39.2736 172.12 39.3366 171.805 39.4626C171.49 39.5885 171.202 39.7865 170.941 40.0565C170.68 40.3175 170.459 40.6505 170.279 41.0555C170.108 41.4515 170.023 41.924 170.023 42.473C170.023 42.644 170.041 42.8195 170.077 42.9995C170.113 43.1705 170.176 43.328 170.266 43.472C170.356 43.616 170.477 43.733 170.63 43.823C170.783 43.913 170.972 43.958 171.197 43.958C171.359 43.958 171.544 43.904 171.751 43.796C171.967 43.688 172.169 43.5215 172.358 43.2965C172.556 43.0715 172.732 42.788 172.885 42.446C173.047 42.104 173.159 41.699 173.222 41.231C173.24 41.105 173.299 41.0015 173.398 40.9205C173.497 40.8305 173.614 40.7855 173.749 40.7855C173.875 40.7855 173.983 40.835 174.073 40.934C174.172 41.033 174.226 41.1455 174.235 41.2715C174.244 41.4425 174.262 41.6855 174.289 42.0005C174.316 42.3065 174.374 42.6125 174.464 42.9185C174.563 43.2245 174.707 43.49 174.896 43.715C175.085 43.94 175.346 44.0525 175.679 44.0525C175.895 44.0525 176.107 43.994 176.314 43.877C176.53 43.76 176.737 43.607 176.935 43.418C177.142 43.22 177.335 42.9995 177.515 42.7565C177.704 42.5045 177.875 42.2525 178.028 42.0005C178.181 41.7485 178.316 41.5055 178.433 41.2715C178.55 41.0375 178.649 40.835 178.73 40.664C178.775 40.565 178.838 40.4885 178.919 40.4345C179.009 40.3805 179.104 40.3535 179.203 40.3535C179.356 40.3535 179.477 40.412 179.567 40.529C179.666 40.637 179.716 40.754 179.716 40.88C179.716 40.943 179.702 41.006 179.675 41.069ZM180.242 39.8405C180.188 39.9845 180.121 40.1465 180.04 40.3265C179.968 40.5065 179.882 40.6955 179.783 40.8935C179.702 41.0465 179.617 41.168 179.527 41.258C179.446 41.339 179.338 41.3795 179.203 41.3795C179.05 41.3795 178.928 41.3345 178.838 41.2445C178.748 41.1455 178.703 41.033 178.703 40.907C178.703 40.862 178.708 40.826 178.717 40.799C178.726 40.763 178.748 40.709 178.784 40.637C179.018 40.187 179.189 39.7955 179.297 39.4626C179.414 39.1206 179.509 38.7651 179.581 38.3961C179.518 38.1891 179.473 38.0136 179.446 37.8696C179.419 37.7256 179.405 37.5771 179.405 37.4241C179.405 37.1271 179.468 36.8886 179.594 36.7086C179.72 36.5196 179.896 36.4251 180.121 36.4251C180.328 36.4251 180.49 36.5151 180.607 36.6951C180.733 36.8751 180.796 37.0956 180.796 37.3566C180.796 37.5006 180.782 37.6446 180.755 37.7886C180.728 37.9326 180.692 38.1126 180.647 38.3286C180.854 38.8416 181.061 39.2961 181.268 39.692C181.475 40.088 181.66 40.4525 181.822 40.7855C181.984 41.1095 182.114 41.4155 182.213 41.7035C182.321 41.9915 182.375 42.2795 182.375 42.5675C182.375 42.9455 182.299 43.3055 182.146 43.6475C181.993 43.9895 181.741 44.2775 181.39 44.5115C181.435 44.5205 181.48 44.525 181.525 44.525C181.57 44.525 181.615 44.525 181.66 44.525C182.173 44.525 182.645 44.408 183.077 44.174C183.509 43.94 183.896 43.6385 184.238 43.2695C184.589 42.8915 184.9 42.4775 185.17 42.0275C185.44 41.5685 185.674 41.114 185.872 40.664C185.962 40.457 186.088 40.3535 186.25 40.3535C186.403 40.3535 186.52 40.4075 186.601 40.5155C186.691 40.6235 186.736 40.7405 186.736 40.8665C186.736 40.9385 186.722 41.006 186.695 41.069C186.596 41.312 186.466 41.591 186.304 41.906C186.151 42.212 185.962 42.5315 185.737 42.8645C185.521 43.1885 185.269 43.508 184.981 43.823C184.693 44.138 184.369 44.4215 184.009 44.6735C183.658 44.9164 183.271 45.1099 182.848 45.2539C182.425 45.4069 181.961 45.4834 181.457 45.4834C180.854 45.4834 180.292 45.3754 179.77 45.1594C179.257 44.9524 178.838 44.606 178.514 44.12C178.46 44.039 178.433 43.9535 178.433 43.8635C178.433 43.7285 178.483 43.6115 178.582 43.5125C178.69 43.4045 178.811 43.3505 178.946 43.3505C179.09 43.3505 179.212 43.4 179.311 43.499C179.32 43.517 179.351 43.5485 179.405 43.5935C179.459 43.6295 179.522 43.6745 179.594 43.7285C179.675 43.7735 179.765 43.814 179.864 43.85C179.972 43.886 180.08 43.904 180.188 43.904C180.404 43.904 180.584 43.859 180.728 43.769C180.881 43.679 181.003 43.571 181.093 43.445C181.183 43.31 181.246 43.1705 181.282 43.0265C181.327 42.8735 181.349 42.743 181.349 42.635C181.349 42.41 181.313 42.185 181.241 41.96C181.169 41.735 181.075 41.51 180.958 41.285C180.85 41.06 180.728 40.8305 180.593 40.5965C180.467 40.3535 180.35 40.1015 180.242 39.8405Z" fill="#F3FFA7"/>
<path d="M11.2865 26.9005C5.05315 26.9005 0 21.8474 0 15.614L0 4.32746H11.2865C17.5199 4.32746 22.5731 9.38061 22.5731 15.614V26.9005H11.2865Z" fill="#F3FFA7"/>
<path d="M36.9615 26.8994C42.3596 26.8994 46.7356 22.5234 46.7356 17.1253V4.32746H33.9378C28.5397 4.32746 24.1636 8.70348 24.1636 14.1016V26.8994H36.9615Z" fill="#F3FFA7"/>
<path d="M7.2428 35.8528C7.2428 31.627 10.6685 28.2013 14.8943 28.2013H22.5458V35.8528C22.5458 40.0786 19.1201 43.5043 14.8943 43.5043H7.2428V35.8528Z" fill="#F3FFA7"/>
<path d="M31.8548 28.2014C36.0807 28.2014 39.5063 31.6271 39.5063 35.8529V43.5049H31.8544C27.6285 43.5049 24.2029 40.0792 24.2029 35.8534V28.2014L31.8548 28.2014Z" fill="#F3FFA7"/>
</svg>
