<svg width="138" height="44" viewBox="0 0 138 44" fill="none" xmlns="http://www.w3.org/2000/svg">
<path d="M51.1013 11.3854C51.1013 16.4618 49.5171 19 46.3486 19H43.6911V4.05695H46.4099C47.9499 4.05695 49.1151 4.68043 49.9055 5.92739C50.7027 7.16753 51.1013 8.98686 51.1013 11.3854ZM50.0486 11.4467C50.0486 9.34119 49.7385 7.7365 49.1185 6.63264C48.4984 5.52877 47.5819 4.97684 46.369 4.97684H44.6928V18.0801H46.2873C47.5819 18.0801 48.5325 17.5146 49.1389 16.3834C49.7454 15.2523 50.0486 13.6067 50.0486 11.4467ZM55.0225 19V4.05695H56.0242V19H55.0225ZM68.5616 11.508C68.5616 13.9815 68.1902 15.8826 67.4475 17.2113C66.7116 18.5401 65.6452 19.2044 64.2484 19.2044C62.8379 19.2044 61.7681 18.5366 61.039 17.2011C60.3099 15.8588 59.9453 13.9543 59.9453 11.4876C59.9453 8.91191 60.3065 6.99378 61.0288 5.73319C61.751 4.47261 62.8345 3.84231 64.279 3.84231C65.6691 3.84231 66.7286 4.50668 67.4577 5.8354C68.1936 7.15731 68.5616 9.04819 68.5616 11.508ZM60.9879 11.508C60.9879 13.7294 61.2638 15.409 61.8158 16.547C62.3745 17.6781 63.1854 18.2436 64.2484 18.2436C65.3182 18.2436 66.129 17.6815 66.6809 16.5572C67.2397 15.4329 67.5191 13.7498 67.5191 11.508C67.5191 9.29349 67.2465 7.62407 66.7014 6.49976C66.1563 5.36864 65.3488 4.80308 64.279 4.80308C63.182 4.80308 62.3575 5.37546 61.8055 6.5202C61.2604 7.65814 60.9879 9.32075 60.9879 11.508ZM80.3631 19H79.0855L73.4333 5.60032H73.3516C73.4333 6.52702 73.4742 7.41965 73.4742 8.27821V19H72.493V4.05695H73.7911L79.4024 17.3033H79.4637C79.4092 16.1858 79.3819 15.2523 79.3819 14.5028V4.05695H80.3631V19ZM84.7851 19V4.05695H85.7868V19H84.7851ZM100.222 19L96.2457 5.3959H96.1639C96.2321 6.82683 96.2661 7.73309 96.2661 8.11467V19H95.3054V4.05695H96.7874L100.14 15.484C100.44 16.4925 100.634 17.351 100.722 18.0597H100.804C100.872 17.5554 101.084 16.7037 101.438 15.5044L104.76 4.05695H106.293V19H105.291V8.19644C105.291 7.77398 105.325 6.84728 105.393 5.41634H105.312L101.356 19H100.222ZM116.377 19L115.059 13.5829H111.43L110.132 19H109.09L112.688 4.05695H113.72L117.399 19H116.377ZM114.824 12.571L113.505 7.00059C113.369 6.3737 113.263 5.78089 113.188 5.22214C113.127 5.81496 113.032 6.40777 112.902 7.00059L111.625 12.571H114.824ZM121.198 12.4688V19H120.196V4.05695H122.24C123.699 4.05695 124.765 4.40106 125.44 5.08927C126.114 5.77748 126.451 6.80639 126.451 8.176C126.451 9.21172 126.268 10.0635 125.9 10.7312C125.532 11.399 124.915 11.8998 124.05 12.2337L127.014 19H125.889L123.099 12.4688H121.198ZM121.198 11.5489H122.598C123.504 11.5489 124.203 11.2695 124.693 10.7108C125.184 10.1521 125.429 9.32075 125.429 8.21688C125.429 7.09258 125.177 6.28172 124.673 5.7843C124.176 5.28688 123.389 5.03817 122.312 5.03817H121.198V11.5489ZM135.892 19L134.573 13.5829H130.945L129.647 19H128.604L132.202 4.05695H133.235L136.914 19H135.892ZM134.338 12.571L133.02 7.00059C132.884 6.3737 132.778 5.78089 132.703 5.22214C132.642 5.81496 132.546 6.40777 132.417 7.00059L131.139 12.571H134.338Z" fill="#CECB5B"/>
<path d="M47.7931 32.4243C48.025 32.1924 48.2602 31.9572 48.4988 31.7186C48.7373 31.4735 48.9692 31.2183 49.1945 30.9533C49.4198 30.6883 49.6285 30.4133 49.8207 30.1283C50.0195 29.8368 50.1951 29.5287 50.3475 29.204C50.3806 29.1311 50.427 29.0781 50.4866 29.045C50.5463 29.0052 50.6125 28.9853 50.6854 28.9853C50.7981 28.9853 50.8875 29.0251 50.9538 29.1046C51.0267 29.1841 51.0631 29.2736 51.0631 29.373C51.0631 29.426 51.0532 29.4757 51.0333 29.5221C50.8279 29.9528 50.5926 30.347 50.3276 30.7048C50.0626 31.0626 49.7843 31.4039 49.4927 31.7286C49.2012 32.0466 48.9063 32.3547 48.6081 32.6529C48.3099 32.9577 48.025 33.2625 47.7533 33.5673C47.7268 34.0245 47.7268 34.4817 47.7533 34.9389C47.7798 35.4028 47.7931 35.8931 47.7931 36.4099C47.7931 36.834 47.7798 37.2581 47.7533 37.6822C47.7268 38.1062 47.6838 38.5104 47.6241 38.8947C47.5645 39.2857 47.4817 39.6501 47.3757 39.9881C47.2763 40.326 47.1471 40.6175 46.988 40.8627C46.829 41.1145 46.6435 41.31 46.4314 41.4491C46.2194 41.5949 45.9709 41.6678 45.686 41.6678C45.2155 41.6678 44.8544 41.5054 44.6026 41.1808C44.3508 40.8561 44.2249 40.4022 44.2249 39.8191C44.2249 39.501 44.258 39.1598 44.3243 38.7954C44.3972 38.4309 44.4966 38.0532 44.6225 37.6623C44.7484 37.278 44.8975 36.887 45.0698 36.4894C45.2487 36.0919 45.4408 35.7043 45.6462 35.3266C45.8516 34.9489 46.0703 34.5877 46.3022 34.2432C46.5341 33.9053 46.7694 33.5971 47.0079 33.3188C47.0212 33.0008 47.0344 32.6695 47.0477 32.3249C47.0675 31.987 47.0874 31.6722 47.1073 31.3807C46.935 31.6855 46.7197 31.9307 46.4612 32.1162C46.2095 32.3017 45.9312 32.3945 45.6263 32.3945C45.1228 32.3945 44.7285 32.2255 44.4436 31.8876C44.1587 31.5497 44.0162 31.0858 44.0162 30.4961C44.0162 30.0654 44.056 29.6745 44.1355 29.3233C44.2216 28.9655 44.3111 28.6607 44.4038 28.4089C44.5032 28.1504 44.5927 27.955 44.6722 27.8224C44.7517 27.6833 44.7915 27.617 44.7915 27.6237C44.8643 27.511 44.967 27.4547 45.0996 27.4547C45.2122 27.4547 45.3017 27.4944 45.3679 27.574C45.4408 27.6469 45.4773 27.733 45.4773 27.8324C45.4773 27.9053 45.4574 27.9715 45.4176 28.0312C45.4243 28.0245 45.3911 28.0809 45.3182 28.2001C45.252 28.3128 45.1758 28.4784 45.0896 28.6971C45.0101 28.9158 44.9339 29.1775 44.861 29.4823C44.7948 29.7871 44.7616 30.1217 44.7616 30.4862C44.7616 30.8506 44.8279 31.1355 44.9604 31.3409C45.0929 31.5463 45.3083 31.649 45.6065 31.649C45.9842 31.649 46.3254 31.3707 46.6302 30.8142C46.935 30.2509 47.1934 29.4359 47.4055 28.3691C47.4187 28.283 47.4585 28.2134 47.5247 28.1604C47.591 28.1007 47.6705 28.0709 47.7633 28.0709C47.8693 28.0709 47.9588 28.1074 48.0316 28.1803C48.1045 28.2531 48.141 28.3426 48.141 28.4486C48.141 28.4685 48.1277 28.5878 48.1012 28.8064C48.0747 29.0185 48.0416 29.3034 48.0018 29.6612C47.9687 30.019 47.9322 30.4365 47.8925 30.9135C47.8527 31.384 47.8196 31.8876 47.7931 32.4243ZM46.998 34.5314C46.6998 34.9621 46.4248 35.416 46.173 35.8931C45.9278 36.3702 45.7158 36.8439 45.5369 37.3144C45.358 37.7849 45.2188 38.2354 45.1194 38.6661C45.0201 39.0968 44.9704 39.4812 44.9704 39.8191C44.9704 40.1637 45.0267 40.432 45.1393 40.6242C45.252 40.823 45.4309 40.9223 45.676 40.9223C45.8947 40.9223 46.0869 40.813 46.2525 40.5944C46.4248 40.3823 46.5673 40.0775 46.6799 39.6799C46.7992 39.2824 46.8886 38.7987 46.9483 38.2288C47.0079 37.6656 47.0377 37.0328 47.0377 36.3304C47.0377 36.0455 47.0311 35.7573 47.0178 35.4657C47.0112 35.1742 47.0046 34.8627 46.998 34.5314ZM54.9394 31.1918C54.7738 31.1918 54.628 31.1786 54.5021 31.1521C54.4027 31.3509 54.2834 31.5364 54.1443 31.7087C54.0051 31.8743 53.8428 32.0201 53.6572 32.146C53.4783 32.2719 53.2762 32.3713 53.051 32.4442C52.8257 32.5171 52.5805 32.5535 52.3154 32.5535C52.004 32.5535 51.7191 32.4972 51.4607 32.3845C51.2023 32.2785 50.977 32.1294 50.7848 31.9373C50.5926 31.7385 50.4436 31.5033 50.3375 31.2316C50.2315 30.9533 50.1785 30.6485 50.1785 30.3172C50.1785 29.8931 50.2547 29.5254 50.4071 29.2139C50.5595 28.8959 50.7351 28.6341 50.9339 28.4287C51.1327 28.2167 51.3315 28.061 51.5303 27.9616C51.729 27.8556 51.8781 27.8026 51.9775 27.8026C52.0902 27.8026 52.173 27.8324 52.226 27.892C52.2856 27.9517 52.3154 28.0312 52.3154 28.1306C52.3154 28.2432 52.279 28.3293 52.2061 28.389C52.1399 28.442 52.0537 28.495 51.9477 28.548C51.8417 28.601 51.729 28.6772 51.6098 28.7766C51.4905 28.8694 51.3778 28.9886 51.2718 29.1344C51.1724 29.2802 51.0896 29.4525 51.0233 29.6513C50.9571 29.85 50.924 30.072 50.924 30.3172C50.924 30.5359 50.9571 30.7413 51.0233 30.9334C51.0896 31.119 51.1857 31.2813 51.3116 31.4204C51.4375 31.553 51.5866 31.659 51.7589 31.7385C51.9311 31.8114 52.1233 31.8478 52.3353 31.8478C52.713 31.8478 53.0244 31.7617 53.2696 31.5894C53.5214 31.4105 53.7136 31.1852 53.8461 30.9135C53.4551 30.7081 53.1338 30.4166 52.882 30.0389C52.6302 29.6612 52.5043 29.2371 52.5043 28.7667C52.5043 28.389 52.5937 28.0809 52.7727 27.8423C52.9582 27.6038 53.2 27.4845 53.4982 27.4845C53.6771 27.4845 53.8461 27.5276 54.0051 27.6137C54.1641 27.6999 54.3033 27.8357 54.4226 28.0212C54.5485 28.2068 54.6479 28.4453 54.7207 28.7369C54.7936 29.0284 54.8301 29.3763 54.8301 29.7805C54.8301 29.9925 54.8036 30.2145 54.7506 30.4464C54.7903 30.453 54.8301 30.4563 54.8698 30.4563C54.9096 30.4563 54.9527 30.4563 54.999 30.4563C55.2243 30.4563 55.4264 30.4298 55.6053 30.3768C55.7842 30.3238 55.9466 30.2443 56.0924 30.1383C56.2381 30.0323 56.3673 29.8964 56.48 29.7308C56.5993 29.5651 56.7119 29.373 56.8179 29.1543C56.8378 29.1145 56.8809 29.0781 56.9471 29.045C57.0134 29.0052 57.0797 28.9853 57.1459 28.9853C57.2321 28.9853 57.3116 29.0218 57.3845 29.0947C57.464 29.1609 57.5037 29.2504 57.5037 29.363C57.5037 29.416 57.4905 29.4757 57.464 29.5419C57.4375 29.6016 57.411 29.6579 57.3845 29.7109C57.2718 29.9097 57.1393 30.1018 56.9869 30.2874C56.8411 30.4663 56.6655 30.6253 56.4601 30.7645C56.2613 30.897 56.036 31.003 55.7842 31.0825C55.5324 31.162 55.2508 31.1985 54.9394 31.1918ZM53.2398 28.6872C53.2398 28.8131 53.2564 28.9456 53.2895 29.0847C53.3226 29.2239 53.3723 29.363 53.4386 29.5022C53.5115 29.6347 53.5976 29.7639 53.697 29.8898C53.803 30.0091 53.9256 30.1118 54.0648 30.1979C54.0846 30.0588 54.0946 29.9229 54.0946 29.7904C54.0946 29.6115 54.0813 29.4293 54.0548 29.2438C54.0283 29.0582 53.9886 28.8893 53.9355 28.7369C53.8892 28.5778 53.8295 28.4519 53.7566 28.3592C53.6837 28.2598 53.5976 28.2101 53.4982 28.2101C53.4585 28.2101 53.4055 28.2399 53.3392 28.2995C53.2729 28.3592 53.2398 28.4884 53.2398 28.6872ZM60.396 33.2592C61.6418 31.6358 62.5065 30.2874 62.9902 29.2139C63.0233 29.141 63.0664 29.088 63.1194 29.0549C63.179 29.0152 63.2453 28.9953 63.3182 28.9953C63.4308 28.9953 63.5236 29.035 63.5965 29.1145C63.6694 29.1874 63.7058 29.2736 63.7058 29.373C63.7058 29.4193 63.6959 29.4657 63.676 29.5121C63.3844 30.1747 62.9703 30.9135 62.4336 31.7286C61.8969 32.5436 61.2177 33.4646 60.396 34.4917C60.396 34.9091 60.3994 35.3266 60.406 35.744C60.4126 36.1615 60.4159 36.6187 60.4159 37.1156C60.4159 37.6126 60.4027 38.1029 60.3762 38.5866C60.3563 39.077 60.3165 39.5408 60.2569 39.9781C60.1973 40.4221 60.1144 40.8296 60.0084 41.2006C59.909 41.5783 59.7765 41.903 59.6108 42.1747C59.4518 42.453 59.2563 42.6683 59.0244 42.8207C58.7991 42.9798 58.5308 43.0593 58.2194 43.0593C57.7754 43.0593 57.4342 42.8903 57.1956 42.5524C56.9571 42.2144 56.8378 41.734 56.8378 41.1112C56.8378 40.7799 56.8676 40.4188 56.9273 40.0278C56.9935 39.6435 57.0863 39.2459 57.2055 38.8351C57.3248 38.4243 57.4673 38.0068 57.6329 37.5828C57.8052 37.1653 57.9941 36.7578 58.1995 36.3602C58.4049 35.9627 58.6269 35.5817 58.8654 35.2172C59.1106 34.8528 59.369 34.5215 59.6407 34.2233C59.6473 33.7595 59.6506 33.299 59.6506 32.8418C59.6572 32.3845 59.6672 31.9638 59.6804 31.5795C59.4816 31.8313 59.2431 32.03 58.9648 32.1758C58.6931 32.3216 58.4214 32.3945 58.1498 32.3945C57.9179 32.3945 57.7058 32.3514 57.5137 32.2653C57.3281 32.1725 57.1691 32.0466 57.0366 31.8876C56.9041 31.7219 56.8014 31.5298 56.7285 31.3111C56.6556 31.0924 56.6191 30.8539 56.6191 30.5955C56.6191 30.0786 56.7053 29.6248 56.8776 29.2338C57.0565 28.8362 57.2817 28.5049 57.5534 28.2399C57.8251 27.9748 58.1233 27.7761 58.448 27.6435C58.7793 27.511 59.0973 27.4448 59.4021 27.4448C59.6075 27.4448 59.7964 27.4713 59.9687 27.5243C60.1409 27.5773 60.2867 27.6369 60.406 27.7032C60.5319 27.7694 60.628 27.8324 60.6942 27.892C60.7605 27.9517 60.7969 27.9848 60.8035 27.9914C60.8764 28.0709 60.9129 28.1604 60.9129 28.2598C60.9129 28.3592 60.8764 28.4486 60.8035 28.5281C60.7307 28.601 60.6445 28.6375 60.5451 28.6375C60.4524 28.6375 60.3629 28.601 60.2768 28.5281C60.2503 28.5082 60.2138 28.4817 60.1674 28.4486C60.1277 28.4089 60.0714 28.3691 59.9985 28.3293C59.9322 28.2896 59.8494 28.2565 59.75 28.23C59.6572 28.2034 59.5446 28.1902 59.4121 28.1902C59.2133 28.1902 58.9946 28.2366 58.7561 28.3293C58.5175 28.4155 58.2956 28.5546 58.0901 28.7468C57.8847 28.9389 57.7124 29.1874 57.5733 29.4922C57.4342 29.7904 57.3646 30.1515 57.3646 30.5756C57.3646 30.8937 57.4342 31.1521 57.5733 31.3509C57.7124 31.543 57.9278 31.6391 58.2194 31.6391C58.3585 31.6391 58.5043 31.5993 58.6567 31.5198C58.8157 31.4403 58.9681 31.3177 59.1139 31.1521C59.2597 30.9864 59.3856 30.7777 59.4916 30.5259C59.6042 30.2741 59.6837 29.9759 59.7301 29.6314C59.7434 29.5386 59.7864 29.4624 59.8593 29.4028C59.9322 29.3365 60.0184 29.3034 60.1177 29.3034C60.2304 29.3034 60.3165 29.3431 60.3762 29.4227C60.4424 29.5022 60.4756 29.5916 60.4756 29.691C60.4756 29.6976 60.4722 29.8003 60.4656 29.9991C60.459 30.1913 60.4524 30.4497 60.4457 30.7744C60.4391 31.0991 60.4292 31.4768 60.4159 31.9075C60.4093 32.3315 60.4027 32.7821 60.396 33.2592ZM59.6407 35.4359C59.3292 35.8666 59.0476 36.3337 58.7958 36.8373C58.544 37.3475 58.3287 37.8611 58.1498 38.3779C57.9709 38.8947 57.8317 39.395 57.7323 39.8787C57.6396 40.3691 57.5932 40.8064 57.5932 41.1907C57.5932 41.4359 57.6131 41.6313 57.6528 41.7771C57.6992 41.9229 57.7522 42.0355 57.8118 42.1151C57.8781 42.1946 57.9477 42.2476 58.0206 42.2741C58.1001 42.3006 58.173 42.3138 58.2392 42.3138C58.4446 42.3138 58.6235 42.231 58.7759 42.0654C58.9283 41.8997 59.0576 41.6777 59.1636 41.3994C59.2696 41.1278 59.3557 40.813 59.422 40.4552C59.4883 40.0974 59.538 39.7263 59.5711 39.342C59.6042 38.9643 59.6274 38.5866 59.6407 38.2089C59.6539 37.8312 59.6605 37.4834 59.6605 37.1653C59.6605 36.8804 59.6605 36.5955 59.6605 36.3105C59.6605 36.0256 59.6539 35.7341 59.6407 35.4359ZM70.6831 29.5121C70.6566 29.5651 70.6003 29.6778 70.5142 29.85C70.4347 30.0157 70.3286 30.2079 70.1961 30.4265C70.0702 30.6452 69.9211 30.8738 69.7489 31.1123C69.5766 31.3509 69.3844 31.5695 69.1724 31.7683C68.9603 31.9671 68.7317 32.1328 68.4866 32.2653C68.2414 32.3912 67.983 32.4541 67.7113 32.4541C67.327 32.4541 67.0023 32.3315 66.7373 32.0864C66.4788 31.8412 66.29 31.5331 66.1707 31.162C65.9454 31.5397 65.6771 31.8412 65.3657 32.0665C65.0542 32.2852 64.7428 32.3945 64.4314 32.3945C64.1862 32.3945 63.9642 32.3514 63.7654 32.2653C63.5667 32.1725 63.3977 32.0466 63.2585 31.8876C63.1194 31.7219 63.0101 31.5298 62.9305 31.3111C62.8577 31.0924 62.8212 30.8539 62.8212 30.5955C62.8212 30.0786 62.9074 29.6248 63.0796 29.2338C63.2585 28.8362 63.4838 28.5049 63.7555 28.2399C64.0272 27.9748 64.3253 27.7761 64.65 27.6435C64.9813 27.511 65.2994 27.4448 65.6042 27.4448C65.8096 27.4448 65.9985 27.4746 66.1707 27.5342C66.343 27.5872 66.4888 27.6469 66.6081 27.7131C66.734 27.7794 66.83 27.8423 66.8963 27.902C66.9626 27.955 66.999 27.9848 67.0056 27.9914C67.0785 28.0776 67.115 28.167 67.115 28.2598C67.115 28.3592 67.0785 28.4486 67.0056 28.5281C66.9327 28.601 66.8466 28.6375 66.7472 28.6375C66.6412 28.6375 66.5517 28.601 66.4788 28.5281C66.4656 28.5149 66.4358 28.4917 66.3894 28.4586C66.343 28.4188 66.2801 28.379 66.2006 28.3393C66.121 28.2995 66.025 28.2664 65.9123 28.2399C65.8063 28.2068 65.6837 28.1902 65.5446 28.1902C65.3392 28.1902 65.1205 28.2366 64.8886 28.3293C64.6567 28.4221 64.4446 28.5679 64.2525 28.7667C64.0603 28.9588 63.898 29.204 63.7654 29.5022C63.6395 29.7937 63.5766 30.1416 63.5766 30.5458C63.5766 30.6717 63.5898 30.8009 63.6164 30.9334C63.6429 31.0593 63.6892 31.1753 63.7555 31.2813C63.8218 31.3873 63.9112 31.4735 64.0239 31.5397C64.1365 31.606 64.2757 31.6391 64.4413 31.6391C64.5606 31.6391 64.6964 31.5993 64.8488 31.5198C65.0078 31.4403 65.1569 31.3177 65.2961 31.1521C65.4419 30.9864 65.5711 30.7777 65.6837 30.5259C65.803 30.2741 65.8858 29.9759 65.9322 29.6314C65.9454 29.5386 65.9885 29.4624 66.0614 29.4028C66.1343 29.3365 66.2204 29.3034 66.3198 29.3034C66.4126 29.3034 66.4921 29.3398 66.5584 29.4127C66.6313 29.4856 66.671 29.5684 66.6776 29.6612C66.6843 29.7871 66.6975 29.966 66.7174 30.1979C66.7373 30.4232 66.7803 30.6485 66.8466 30.8738C66.9195 31.0991 67.0255 31.2945 67.1647 31.4602C67.3038 31.6259 67.496 31.7087 67.7411 31.7087C67.9002 31.7087 68.0559 31.6656 68.2083 31.5795C68.3673 31.4933 68.5197 31.3807 68.6655 31.2415C68.8179 31.0958 68.9603 30.9334 69.0929 30.7545C69.232 30.569 69.3579 30.3835 69.4706 30.1979C69.5832 30.0124 69.6826 29.8335 69.7687 29.6612C69.8549 29.4889 69.9278 29.3398 69.9874 29.2139C70.0205 29.141 70.0669 29.0847 70.1265 29.045C70.1928 29.0052 70.2624 28.9853 70.3353 28.9853C70.4479 28.9853 70.5374 29.0284 70.6036 29.1145C70.6765 29.1941 70.713 29.2802 70.713 29.373C70.713 29.4193 70.703 29.4657 70.6831 29.5121ZM87.1326 27.6932C87.1326 27.786 87.0994 27.8688 87.0332 27.9417C86.9669 28.008 86.8708 28.0411 86.7449 28.0411C86.6522 28.0411 86.5528 28.0378 86.4468 28.0312C86.3474 28.0245 86.2016 28.0212 86.0094 28.0212C85.91 28.0212 85.7609 28.0279 85.5622 28.0411C85.37 28.0477 85.148 28.061 84.8962 28.0809C84.6511 28.1007 84.386 28.1239 84.1011 28.1504C83.8162 28.1703 83.5279 28.1935 83.2364 28.22C83.243 28.2531 83.2463 28.3062 83.2463 28.379C83.2463 29.0218 83.1039 29.5916 82.8189 30.0886C82.5406 30.5855 82.1663 31.0063 81.6958 31.3509C81.232 31.6888 80.6919 31.9472 80.0757 32.1261C79.4595 32.2984 78.8201 32.3845 78.1574 32.3845C77.6804 32.3845 77.2298 32.3183 76.8057 32.1858C76.3883 32.0532 76.0205 31.8611 75.7025 31.6093C75.391 31.3575 75.1425 31.0494 74.957 30.6849C74.7781 30.3205 74.6887 29.9031 74.6887 29.4326C74.6887 29.0549 74.7649 28.707 74.9173 28.389C75.0697 28.0709 75.2751 27.7893 75.5335 27.5441C75.7985 27.2924 76.11 27.0803 76.4678 26.908C76.8256 26.7358 77.2132 26.6032 77.6307 26.5105C77.5114 26.4575 77.3855 26.3846 77.253 26.2918C77.1271 26.1924 77.0111 26.0765 76.9051 25.9439C76.7991 25.8048 76.7096 25.6491 76.6367 25.4768C76.5705 25.2979 76.5373 25.1024 76.5373 24.8904C76.5373 24.3868 76.65 23.9495 76.8753 23.5784C77.1072 23.2073 77.4021 22.8992 77.7599 22.654C78.1177 22.4089 78.5119 22.2267 78.9426 22.1074C79.38 21.9881 79.804 21.9285 80.2149 21.9285C80.5727 21.9285 80.904 21.9716 81.2088 22.0577C81.5202 22.1372 81.7853 22.2532 82.0039 22.4056C82.2292 22.5513 82.4048 22.7336 82.5307 22.9522C82.6632 23.1643 82.7295 23.3995 82.7295 23.6579C82.7295 23.8766 82.6864 24.0853 82.6003 24.2841C82.5141 24.4762 82.3949 24.6452 82.2425 24.791C82.0967 24.9368 81.9211 25.0527 81.7157 25.1389C81.5169 25.2184 81.2982 25.2581 81.0597 25.2581C80.8477 25.2581 80.6588 25.2283 80.4932 25.1687C80.3341 25.1024 80.1983 25.0262 80.0857 24.9401C79.973 24.8473 79.8869 24.7545 79.8272 24.6618C79.7676 24.5624 79.7378 24.4795 79.7378 24.4133C79.7378 24.3073 79.7709 24.2178 79.8372 24.1449C79.9101 24.072 79.9995 24.0356 80.1055 24.0356C80.1784 24.0356 80.2347 24.0555 80.2745 24.0952C80.3143 24.1284 80.354 24.1681 80.3938 24.2145C80.46 24.294 80.5395 24.3735 80.6323 24.453C80.7317 24.5326 80.8874 24.5723 81.0995 24.5723C81.2452 24.5723 81.3711 24.5491 81.4771 24.5027C81.5832 24.4497 81.6726 24.3835 81.7455 24.304C81.8184 24.2178 81.8714 24.1251 81.9045 24.0257C81.9443 23.9196 81.9642 23.8169 81.9642 23.7175C81.9642 23.5916 81.9277 23.4657 81.8548 23.3399C81.7886 23.214 81.6859 23.1013 81.5467 23.0019C81.4076 22.9025 81.2287 22.823 81.01 22.7634C80.7913 22.7037 80.5329 22.6739 80.2347 22.6739C79.9366 22.6739 79.6152 22.717 79.2706 22.8031C78.9327 22.8826 78.6146 23.0085 78.3165 23.1808C78.0249 23.3465 77.7797 23.5651 77.581 23.8368C77.3888 24.1019 77.2927 24.4166 77.2927 24.781C77.2927 25.0196 77.3325 25.2217 77.412 25.3873C77.4981 25.5464 77.6141 25.6789 77.7599 25.7849C77.9056 25.8909 78.0779 25.9771 78.2767 26.0433C78.4821 26.103 78.7074 26.156 78.9526 26.2023C79.0453 26.2222 79.1315 26.2421 79.211 26.262C79.2971 26.2752 79.37 26.2984 79.4297 26.3316C79.4959 26.3581 79.5456 26.3978 79.5788 26.4508C79.6185 26.4972 79.6384 26.5635 79.6384 26.6496C79.6384 26.7556 79.6019 26.8418 79.5291 26.908C79.4628 26.9677 79.37 26.9975 79.2508 26.9975C79.1315 26.9975 78.9559 27.0041 78.724 27.0174C78.4921 27.0306 78.2336 27.0671 77.9487 27.1267C77.6704 27.1797 77.3822 27.2592 77.084 27.3652C76.7858 27.4646 76.5142 27.6071 76.269 27.7926C76.0304 27.9715 75.8317 28.1935 75.6726 28.4586C75.5202 28.7236 75.444 29.045 75.444 29.4227C75.444 29.8003 75.5136 30.1317 75.6528 30.4166C75.7985 30.6949 75.994 30.9268 76.2392 31.1123C76.4843 31.2912 76.7693 31.4271 77.0939 31.5198C77.4253 31.606 77.7797 31.649 78.1574 31.649C78.6875 31.649 79.211 31.5861 79.7278 31.4602C80.2513 31.3277 80.7184 31.1289 81.1293 30.8638C81.5401 30.5988 81.8714 30.2642 82.1232 29.86C82.3816 29.4558 82.5108 28.982 82.5108 28.4387C82.5108 28.4122 82.5075 28.389 82.5009 28.3691C82.5009 28.3426 82.5009 28.3128 82.5009 28.2796C82.1431 28.3128 81.8184 28.3459 81.5268 28.379C81.2419 28.4055 81.0166 28.4254 80.851 28.4387C80.798 28.4453 80.7516 28.4519 80.7118 28.4586C80.6787 28.4586 80.6522 28.4586 80.6323 28.4586C80.5197 28.4586 80.4236 28.4254 80.3441 28.3592C80.2646 28.2929 80.2248 28.1968 80.2248 28.0709C80.2248 27.9782 80.2546 27.8986 80.3143 27.8324C80.3805 27.7595 80.4667 27.7164 80.5727 27.7032C80.7648 27.6833 81.0133 27.6568 81.3181 27.6237C81.6229 27.5905 81.9542 27.5607 82.312 27.5342C82.6765 27.5011 83.0509 27.4713 83.4352 27.4448C83.8195 27.4116 84.1839 27.3818 84.5285 27.3553C84.8797 27.3288 85.1977 27.3089 85.4827 27.2957C85.7742 27.2824 86.0061 27.2758 86.1784 27.2758C86.5495 27.2758 86.8013 27.3089 86.9338 27.3752C87.0663 27.4414 87.1326 27.5475 87.1326 27.6932ZM98.0458 22.336C98.0458 22.442 98.0094 22.5281 97.9365 22.5944C97.8636 22.654 97.7742 22.6839 97.6681 22.6839H92.629V22.7932C92.629 23.1974 92.5991 23.6281 92.5395 24.0853C92.4799 24.5425 92.397 24.9997 92.291 25.4569C92.1916 25.9075 92.0757 26.3481 91.9431 26.7788C91.8173 27.2095 91.6847 27.6071 91.5456 27.9715C91.4131 28.336 91.2805 28.654 91.148 28.9257C91.0155 29.1907 90.8962 29.3895 90.7902 29.5221C90.8763 29.8269 90.979 30.1118 91.0983 30.3768C91.2176 30.6352 91.3501 30.8638 91.4959 31.0626C91.6483 31.2548 91.8106 31.4072 91.9829 31.5198C92.1552 31.6325 92.3407 31.6888 92.5395 31.6888C92.7714 31.6888 93 31.5927 93.2253 31.4006C93.4572 31.2018 93.6693 30.9699 93.8614 30.7048C94.0602 30.4331 94.2325 30.1615 94.3783 29.8898C94.5307 29.6115 94.64 29.3895 94.7063 29.2239C94.7725 29.0648 94.8885 28.9853 95.0541 28.9853C95.1668 28.9853 95.2562 29.0251 95.3225 29.1046C95.3954 29.1841 95.4318 29.2703 95.4318 29.363C95.4318 29.4094 95.4219 29.4558 95.402 29.5022C95.3821 29.5486 95.3324 29.6546 95.2529 29.8202C95.18 29.9859 95.0806 30.178 94.9547 30.3967C94.8355 30.6154 94.693 30.8473 94.5273 31.0924C94.3683 31.331 94.1861 31.5497 93.9807 31.7484C93.7819 31.9472 93.5666 32.1129 93.3346 32.2454C93.1027 32.3779 92.8576 32.4442 92.5991 32.4442C92.1419 32.4442 91.7311 32.2951 91.3667 31.9969C91.0022 31.6987 90.6908 31.2813 90.4324 30.7446C90.1806 30.2079 89.9884 29.5717 89.8559 28.8362C89.7234 28.1007 89.6571 27.2957 89.6571 26.421C89.6571 26.2023 89.6604 25.9472 89.6671 25.6557C89.6737 25.3575 89.6869 25.0461 89.7068 24.7214C89.7267 24.3901 89.7565 24.0522 89.7963 23.7076C89.836 23.3564 89.889 23.0152 89.9553 22.6839H86.3871C86.2811 22.6839 86.1917 22.654 86.1188 22.5944C86.0459 22.5281 86.0094 22.442 86.0094 22.336C86.0094 22.23 86.0459 22.1471 86.1188 22.0875C86.1917 22.0212 86.2811 21.9881 86.3871 21.9881H90.1243C90.1905 21.7496 90.2667 21.5309 90.3529 21.3321C90.4456 21.1333 90.5483 20.9611 90.661 20.8153C90.7803 20.6695 90.9095 20.5569 91.0486 20.4774C91.1944 20.3912 91.3534 20.3481 91.5257 20.3481C91.6914 20.3481 91.8338 20.3912 91.9531 20.4774C92.079 20.5569 92.185 20.6695 92.2711 20.8153C92.3573 20.9611 92.4235 21.1333 92.4699 21.3321C92.5229 21.5309 92.5627 21.7496 92.5892 21.9881H97.6681C97.7742 21.9881 97.8636 22.0212 97.9365 22.0875C98.0094 22.1471 98.0458 22.23 98.0458 22.336ZM90.5616 28.5281C90.7604 28.0908 90.9393 27.6203 91.0983 27.1168C91.264 26.6065 91.4031 26.093 91.5158 25.5762C91.635 25.0593 91.7245 24.5524 91.7841 24.0555C91.8504 23.5585 91.8835 23.1013 91.8835 22.6839H90.7107C90.6179 23.0947 90.5417 23.6049 90.4821 24.2145C90.4291 24.8175 90.4026 25.553 90.4026 26.421C90.4026 26.9047 90.4158 27.3122 90.4423 27.6435C90.4688 27.9682 90.5086 28.2631 90.5616 28.5281ZM91.4859 21.0936C91.4263 21.0936 91.3402 21.1598 91.2275 21.2924C91.1149 21.4183 91.0022 21.6502 90.8896 21.9881H91.8438C91.8106 21.7098 91.7609 21.4912 91.6947 21.3321C91.635 21.1731 91.5655 21.0936 91.4859 21.0936ZM90.7206 29.2438V29.2537V29.2438ZM95.9387 31.1918C96.0779 31.384 96.2568 31.5397 96.4754 31.659C96.6941 31.7716 96.9625 31.828 97.2805 31.828C97.6052 31.828 97.9001 31.7518 98.1651 31.5993C98.4302 31.4403 98.672 31.2349 98.8907 30.9831C99.1093 30.7313 99.3048 30.4497 99.4771 30.1383C99.6494 29.8269 99.8051 29.5154 99.9442 29.204C99.9774 29.1311 100.024 29.0781 100.083 29.045C100.143 29.0052 100.209 28.9853 100.282 28.9853C100.395 28.9853 100.484 29.0251 100.551 29.1046C100.623 29.1841 100.66 29.2703 100.66 29.363C100.66 29.3962 100.657 29.426 100.65 29.4525C100.643 29.4724 100.633 29.4955 100.62 29.5221C100.163 30.5292 99.6626 31.2879 99.1193 31.7981C98.5826 32.3083 97.9729 32.5701 97.2905 32.5833C96.8531 32.5833 96.4754 32.4972 96.1574 32.3249C95.8393 32.1593 95.5776 31.9439 95.3722 31.6789C95.1668 31.4072 95.0144 31.1024 94.915 30.7645C94.8156 30.4265 94.7659 30.0886 94.7659 29.7507C94.7659 29.4127 94.8056 29.1013 94.8852 28.8164C94.9713 28.5314 95.0906 28.283 95.243 28.0709C95.402 27.8589 95.5875 27.6932 95.7996 27.574C96.0182 27.4547 96.2568 27.3951 96.5152 27.3951C96.6676 27.3951 96.8167 27.4282 96.9625 27.4944C97.1149 27.5541 97.2507 27.6435 97.37 27.7628C97.4892 27.8755 97.5853 28.0146 97.6582 28.1803C97.7311 28.3459 97.7675 28.5348 97.7675 28.7468C97.7675 29.0185 97.7212 29.2736 97.6284 29.5121C97.5356 29.7507 97.4064 29.9726 97.2408 30.178C97.0817 30.3835 96.8896 30.5723 96.6643 30.7446C96.439 30.9169 96.1971 31.0659 95.9387 31.1918ZM95.6405 30.5458C95.846 30.4597 96.0315 30.3503 96.1971 30.2178C96.3694 30.0853 96.5152 29.9395 96.6345 29.7805C96.7537 29.6214 96.8465 29.4558 96.9128 29.2835C96.979 29.1046 97.0122 28.9257 97.0122 28.7468C97.0122 28.548 96.9625 28.3989 96.8631 28.2995C96.7637 28.1935 96.6477 28.1405 96.5152 28.1405C96.3363 28.1405 96.1839 28.1902 96.058 28.2896C95.9321 28.389 95.8294 28.5182 95.7499 28.6772C95.6704 28.8362 95.6107 29.0152 95.571 29.2139C95.5378 29.4061 95.5213 29.5983 95.5213 29.7904C95.5213 29.9097 95.5312 30.0356 95.5511 30.1681C95.5776 30.3006 95.6074 30.4265 95.6405 30.5458ZM100.998 28.2001C100.971 28.379 100.938 28.548 100.898 28.707C100.859 28.8594 100.819 28.9953 100.779 29.1145C100.746 29.2272 100.716 29.32 100.69 29.3928C100.663 29.4657 100.647 29.5055 100.64 29.5121C100.574 29.6645 100.458 29.7407 100.292 29.7407C100.199 29.7407 100.113 29.7076 100.034 29.6413C99.9542 29.5684 99.9144 29.479 99.9144 29.373C99.9144 29.3332 99.921 29.3034 99.9343 29.2835C99.9475 29.2636 99.9674 29.2239 99.9939 29.1642C100.02 29.1046 100.054 29.0052 100.093 28.8661C100.133 28.7269 100.183 28.5116 100.242 28.22C100.13 28.22 100.014 28.2167 99.8945 28.2101C99.7753 28.2034 99.6659 28.1803 99.5665 28.1405C99.4605 28.1007 99.3744 28.0378 99.3081 27.9517C99.2419 27.8655 99.2087 27.7462 99.2087 27.5938C99.2087 27.4812 99.2419 27.3288 99.3081 27.1366C99.3678 26.9445 99.4506 26.7556 99.5566 26.5701C99.6626 26.3846 99.7819 26.2255 99.9144 26.093C100.047 25.9539 100.179 25.8843 100.312 25.8843C100.464 25.8843 100.587 25.9406 100.68 26.0533C100.779 26.1659 100.855 26.3051 100.908 26.4707C100.961 26.6297 100.998 26.7987 101.018 26.9776C101.044 27.1565 101.057 27.3122 101.057 27.4448C101.17 27.4448 101.279 27.4448 101.385 27.4448C101.498 27.4381 101.604 27.4348 101.703 27.4348C102.081 27.4348 102.369 27.5176 102.568 27.6833C102.767 27.8489 102.866 28.1206 102.866 28.4983C102.866 28.6507 102.856 28.8097 102.837 28.9754C102.817 29.141 102.793 29.3133 102.767 29.4922C102.74 29.6645 102.717 29.8368 102.697 30.0091C102.678 30.1814 102.668 30.3503 102.668 30.516C102.668 30.7545 102.701 30.9533 102.767 31.1123C102.833 31.2647 102.916 31.3873 103.015 31.4801C103.115 31.5728 103.221 31.6391 103.334 31.6789C103.446 31.712 103.549 31.7286 103.642 31.7286C103.927 31.7286 104.195 31.6358 104.447 31.4503C104.698 31.2647 104.93 31.0428 105.142 30.7843C105.354 30.5193 105.543 30.241 105.709 29.9494C105.881 29.6579 106.024 29.4028 106.136 29.1841C106.169 29.1245 106.216 29.0781 106.276 29.045C106.335 29.0118 106.398 28.9953 106.464 28.9953C106.584 28.9953 106.676 29.035 106.743 29.1145C106.809 29.1874 106.842 29.2703 106.842 29.363C106.842 29.4293 106.829 29.4889 106.802 29.5419C106.65 29.8136 106.471 30.1217 106.266 30.4663C106.067 30.8042 105.838 31.1223 105.58 31.4204C105.321 31.7186 105.03 31.9704 104.705 32.1758C104.387 32.3812 104.036 32.4839 103.652 32.4839C103.413 32.4839 103.188 32.4376 102.976 32.3448C102.764 32.2587 102.578 32.1328 102.419 31.9671C102.267 31.7948 102.144 31.5861 102.051 31.3409C101.959 31.0891 101.912 30.8075 101.912 30.4961C101.912 30.1648 101.945 29.8368 102.012 29.5121C102.078 29.1808 102.111 28.8661 102.111 28.5679C102.111 28.442 102.081 28.3492 102.022 28.2896C101.969 28.2233 101.846 28.1902 101.654 28.1902C101.561 28.1902 101.458 28.1902 101.346 28.1902C101.24 28.1902 101.124 28.1935 100.998 28.2001ZM100.332 27.4646C100.332 27.4182 100.329 27.3586 100.322 27.2857C100.322 27.2062 100.315 27.13 100.302 27.0571C100.295 26.9842 100.282 26.9213 100.262 26.8683C100.249 26.8153 100.232 26.7888 100.213 26.7888C100.193 26.7888 100.166 26.8153 100.133 26.8683C100.107 26.9147 100.077 26.9743 100.044 27.0472C100.01 27.1134 99.9807 27.1863 99.9542 27.2658C99.9277 27.3454 99.9078 27.4116 99.8945 27.4646H100.332ZM113.819 29.5121C113.793 29.5651 113.737 29.6778 113.65 29.85C113.571 30.0157 113.465 30.2079 113.332 30.4265C113.206 30.6452 113.057 30.8738 112.885 31.1123C112.713 31.3509 112.521 31.5695 112.309 31.7683C112.097 31.9671 111.868 32.1328 111.623 32.2653C111.378 32.3912 111.119 32.4541 110.848 32.4541C110.463 32.4541 110.139 32.3315 109.874 32.0864C109.615 31.8412 109.426 31.5331 109.307 31.162C109.082 31.5397 108.813 31.8412 108.502 32.0665C108.19 32.2852 107.879 32.3945 107.568 32.3945C107.322 32.3945 107.1 32.3514 106.902 32.2653C106.703 32.1725 106.534 32.0466 106.395 31.8876C106.256 31.7219 106.146 31.5298 106.067 31.3111C105.994 31.0924 105.957 30.8539 105.957 30.5955C105.957 30.0786 106.044 29.6248 106.216 29.2338C106.395 28.8362 106.62 28.5049 106.892 28.2399C107.163 27.9748 107.462 27.7761 107.786 27.6435C108.118 27.511 108.436 27.4448 108.74 27.4448C108.946 27.4448 109.135 27.4746 109.307 27.5342C109.479 27.5872 109.625 27.6469 109.744 27.7131C109.87 27.7794 109.966 27.8423 110.033 27.902C110.099 27.955 110.135 27.9848 110.142 27.9914C110.215 28.0776 110.251 28.167 110.251 28.2598C110.251 28.3592 110.215 28.4486 110.142 28.5281C110.069 28.601 109.983 28.6375 109.883 28.6375C109.777 28.6375 109.688 28.601 109.615 28.5281C109.602 28.5149 109.572 28.4917 109.526 28.4586C109.479 28.4188 109.416 28.379 109.337 28.3393C109.257 28.2995 109.161 28.2664 109.049 28.2399C108.943 28.2068 108.82 28.1902 108.681 28.1902C108.475 28.1902 108.257 28.2366 108.025 28.3293C107.793 28.4221 107.581 28.5679 107.389 28.7667C107.197 28.9588 107.034 29.204 106.902 29.5022C106.776 29.7937 106.713 30.1416 106.713 30.5458C106.713 30.6717 106.726 30.8009 106.753 30.9334C106.779 31.0593 106.825 31.1753 106.892 31.2813C106.958 31.3873 107.047 31.4735 107.16 31.5397C107.273 31.606 107.412 31.6391 107.578 31.6391C107.697 31.6391 107.833 31.5993 107.985 31.5198C108.144 31.4403 108.293 31.3177 108.432 31.1521C108.578 30.9864 108.707 30.7777 108.82 30.5259C108.939 30.2741 109.022 29.9759 109.068 29.6314C109.082 29.5386 109.125 29.4624 109.198 29.4028C109.271 29.3365 109.357 29.3034 109.456 29.3034C109.549 29.3034 109.628 29.3398 109.695 29.4127C109.767 29.4856 109.807 29.5684 109.814 29.6612C109.821 29.7871 109.834 29.966 109.854 30.1979C109.874 30.4232 109.917 30.6485 109.983 30.8738C110.056 31.0991 110.162 31.2945 110.301 31.4602C110.44 31.6259 110.632 31.7087 110.877 31.7087C111.036 31.7087 111.192 31.6656 111.345 31.5795C111.504 31.4933 111.656 31.3807 111.802 31.2415C111.954 31.0958 112.097 30.9334 112.229 30.7545C112.368 30.569 112.494 30.3835 112.607 30.1979C112.719 30.0124 112.819 29.8335 112.905 29.6612C112.991 29.4889 113.064 29.3398 113.124 29.2139C113.157 29.141 113.203 29.0847 113.263 29.045C113.329 29.0052 113.399 28.9853 113.472 28.9853C113.584 28.9853 113.674 29.0284 113.74 29.1145C113.813 29.1941 113.849 29.2802 113.849 29.373C113.849 29.4193 113.839 29.4657 113.819 29.5121ZM118.232 29.5121C118.232 30.1217 118.123 30.6419 117.904 31.0726C117.686 31.5033 117.417 31.8313 117.099 32.0566H117.139C117.53 32.0566 117.885 31.9704 118.203 31.7981C118.527 31.6192 118.819 31.3939 119.077 31.1223C119.336 30.844 119.568 30.5359 119.773 30.1979C119.978 29.86 120.161 29.532 120.32 29.2139C120.353 29.141 120.399 29.0847 120.459 29.045C120.525 29.0052 120.595 28.9853 120.668 28.9853C120.78 28.9853 120.87 29.0251 120.936 29.1046C121.002 29.1841 121.035 29.2703 121.035 29.363C121.035 29.416 121.025 29.4657 121.005 29.5121C120.833 29.8964 120.628 30.2841 120.389 30.675C120.151 31.0593 119.872 31.4072 119.554 31.7186C119.236 32.03 118.878 32.2818 118.481 32.474C118.083 32.6728 117.643 32.7722 117.159 32.7722C116.808 32.7722 116.467 32.7159 116.135 32.6032C115.804 32.4972 115.512 32.3282 115.261 32.0963C115.168 32.0234 115.088 31.9472 115.022 31.8677C114.956 31.7816 114.903 31.7021 114.863 31.6292C114.85 31.6159 114.843 31.6027 114.843 31.5894C114.803 31.5298 114.783 31.4668 114.783 31.4006C114.783 31.3144 114.813 31.2349 114.873 31.162C114.88 31.1488 114.886 31.1421 114.893 31.1421C114.899 31.1355 114.906 31.1289 114.913 31.1223C114.979 31.0626 115.052 31.0295 115.131 31.0229H115.161C115.194 31.0229 115.218 31.0262 115.231 31.0328C115.237 31.0328 115.241 31.0361 115.241 31.0428C115.247 31.0428 115.254 31.0428 115.261 31.0428C115.28 31.0428 115.304 31.0494 115.33 31.0626C115.337 31.0693 115.343 31.0726 115.35 31.0726C115.41 31.1123 115.459 31.162 115.499 31.2217C115.545 31.3012 115.599 31.3741 115.658 31.4403C115.711 31.4933 115.774 31.543 115.847 31.5894C115.92 31.6292 116.003 31.649 116.095 31.649C116.261 31.649 116.427 31.5993 116.592 31.5C116.758 31.4006 116.907 31.2581 117.04 31.0726C117.172 30.887 117.278 30.6617 117.358 30.3967C117.444 30.1317 117.487 29.8368 117.487 29.5121C117.487 29.2736 117.46 29.0715 117.407 28.9058C117.361 28.7335 117.298 28.5944 117.219 28.4884C117.146 28.3824 117.066 28.3062 116.98 28.2598C116.894 28.2068 116.811 28.1803 116.732 28.1803C116.553 28.1803 116.37 28.273 116.185 28.4586C116.006 28.6441 115.827 28.8793 115.648 29.1642C115.469 29.4492 115.29 29.7639 115.111 30.1085C114.939 30.453 114.764 30.7876 114.585 31.1123C114.571 32.1858 114.552 33.2095 114.525 34.1835C114.505 35.1576 114.465 36.0621 114.406 36.897C114.353 37.7319 114.277 38.4872 114.177 39.1631C114.078 39.839 113.942 40.4154 113.77 40.8925C113.597 41.3762 113.385 41.7473 113.134 42.0057C112.882 42.2641 112.574 42.3934 112.209 42.3934C112.097 42.3934 111.967 42.3702 111.822 42.3238C111.676 42.2774 111.54 42.1813 111.414 42.0355C111.288 41.8964 111.182 41.6943 111.096 41.4292C111.01 41.1642 110.967 40.8097 110.967 40.3657C110.967 39.8025 111.036 39.1498 111.176 38.4077C111.315 37.6656 111.513 36.8771 111.772 36.0422C112.024 35.2139 112.325 34.3625 112.676 33.4878C113.028 32.6132 113.415 31.7617 113.839 30.9334C113.839 30.7015 113.839 30.4729 113.839 30.2476C113.846 30.0223 113.849 29.8037 113.849 29.5916C113.763 29.691 113.66 29.7407 113.541 29.7407C113.428 29.7407 113.339 29.701 113.273 29.6214C113.206 29.5419 113.173 29.4558 113.173 29.363C113.173 29.3166 113.183 29.2669 113.203 29.2139C113.362 28.8495 113.485 28.5049 113.571 28.1803C113.657 27.8489 113.72 27.5607 113.76 27.3155C113.806 27.0637 113.833 26.865 113.839 26.7192C113.846 26.5734 113.849 26.4972 113.849 26.4906C113.849 26.3912 113.886 26.3051 113.959 26.2322C114.031 26.1593 114.121 26.1228 114.227 26.1228C114.326 26.1228 114.412 26.1593 114.485 26.2322C114.558 26.2984 114.595 26.3846 114.595 26.4906V29.5419C114.747 29.2835 114.899 29.0284 115.052 28.7766C115.204 28.5248 115.363 28.2995 115.529 28.1007C115.701 27.902 115.883 27.7429 116.076 27.6237C116.274 27.4978 116.493 27.4348 116.732 27.4348C116.957 27.4348 117.162 27.4878 117.348 27.5938C117.533 27.6999 117.692 27.8456 117.825 28.0312C117.957 28.2167 118.057 28.4387 118.123 28.6971C118.196 28.9489 118.232 29.2206 118.232 29.5121ZM113.819 32.7026C113.495 33.4315 113.2 34.1637 112.935 34.8992C112.676 35.6347 112.458 36.3437 112.279 37.0262C112.093 37.7087 111.951 38.3481 111.851 38.9444C111.752 39.5408 111.702 40.0643 111.702 40.5148C111.702 40.6275 111.709 40.7501 111.722 40.8826C111.735 41.0151 111.762 41.1377 111.802 41.2503C111.841 41.363 111.898 41.4557 111.971 41.5286C112.044 41.6082 112.14 41.6479 112.259 41.6479C112.478 41.6479 112.666 41.5088 112.825 41.2305C112.984 40.9588 113.117 40.5877 113.223 40.1173C113.336 39.6534 113.428 39.1167 113.501 38.5071C113.574 37.9041 113.631 37.2713 113.67 36.6087C113.717 35.9461 113.75 35.2769 113.77 34.601C113.79 33.9318 113.806 33.299 113.819 32.7026ZM121.95 24.4829C121.95 24.7347 121.86 24.95 121.681 25.1289C121.509 25.3012 121.297 25.3873 121.045 25.3873C120.793 25.3873 120.578 25.3012 120.399 25.1289C120.227 24.95 120.141 24.7347 120.141 24.4829C120.141 24.357 120.164 24.241 120.21 24.135C120.257 24.0223 120.32 23.9263 120.399 23.8468C120.485 23.7606 120.581 23.6944 120.687 23.648C120.8 23.6016 120.919 23.5784 121.045 23.5784C121.171 23.5784 121.287 23.6016 121.393 23.648C121.506 23.6944 121.602 23.7606 121.681 23.8468C121.767 23.9263 121.834 24.0223 121.88 24.135C121.926 24.241 121.95 24.357 121.95 24.4829ZM120.34 30.3073C120.34 29.3531 120.399 28.4022 120.518 27.4547C120.532 27.3619 120.571 27.2824 120.638 27.2162C120.711 27.1433 120.803 27.1068 120.916 27.1068C121.015 27.1068 121.098 27.1466 121.164 27.2261C121.231 27.299 121.264 27.3851 121.264 27.4845C121.264 27.5243 121.254 27.6435 121.234 27.8423C121.221 28.0411 121.201 28.2796 121.174 28.5579C121.155 28.8296 121.135 29.1212 121.115 29.4326C121.102 29.7374 121.095 30.019 121.095 30.2774C121.095 30.6286 121.128 30.9135 121.194 31.1322C121.267 31.3442 121.357 31.5099 121.463 31.6292C121.575 31.7484 121.691 31.828 121.811 31.8677C121.936 31.9075 122.056 31.9273 122.168 31.9273C122.354 31.9273 122.546 31.8611 122.745 31.7286C122.944 31.596 123.146 31.4105 123.351 31.172C123.563 30.9334 123.775 30.6485 123.987 30.3172C124.199 29.9793 124.408 29.6049 124.613 29.1941C124.647 29.1278 124.693 29.0781 124.753 29.045C124.812 29.0052 124.878 28.9853 124.951 28.9853C125.057 28.9853 125.143 29.0251 125.21 29.1046C125.283 29.1841 125.319 29.2703 125.319 29.363C125.319 29.4293 125.306 29.4856 125.279 29.532C125.2 29.6844 125.1 29.8699 124.981 30.0886C124.862 30.3073 124.726 30.5325 124.574 30.7645C124.421 30.9964 124.252 31.2283 124.067 31.4602C123.888 31.6855 123.696 31.8909 123.49 32.0764C123.285 32.2553 123.069 32.4011 122.844 32.5138C122.619 32.6264 122.39 32.6827 122.158 32.6827C121.86 32.6827 121.598 32.6198 121.373 32.4939C121.148 32.368 120.956 32.199 120.797 31.987C120.644 31.7749 120.528 31.5265 120.449 31.2415C120.376 30.95 120.34 30.6386 120.34 30.3073ZM121.393 24.4829C121.393 24.3901 121.357 24.3106 121.284 24.2443C121.217 24.1714 121.138 24.135 121.045 24.135C120.952 24.135 120.873 24.1714 120.807 24.2443C120.74 24.3106 120.707 24.3901 120.707 24.4829C120.707 24.5756 120.74 24.6551 120.807 24.7214C120.873 24.7877 120.952 24.8208 121.045 24.8208C121.138 24.8208 121.217 24.7877 121.284 24.7214C121.357 24.6551 121.393 24.5756 121.393 24.4829ZM132.286 29.5121C132.26 29.5651 132.204 29.6778 132.118 29.85C132.038 30.0157 131.932 30.2079 131.799 30.4265C131.674 30.6452 131.524 30.8738 131.352 31.1123C131.18 31.3509 130.988 31.5695 130.776 31.7683C130.564 31.9671 130.335 32.1328 130.09 32.2653C129.845 32.3912 129.586 32.4541 129.315 32.4541C128.93 32.4541 128.606 32.3315 128.341 32.0864C128.082 31.8412 127.893 31.5331 127.774 31.162C127.549 31.5397 127.28 31.8412 126.969 32.0665C126.658 32.2852 126.346 32.3945 126.035 32.3945C125.79 32.3945 125.568 32.3514 125.369 32.2653C125.17 32.1725 125.001 32.0466 124.862 31.8876C124.723 31.7219 124.613 31.5298 124.534 31.3111C124.461 31.0924 124.425 30.8539 124.425 30.5955C124.425 30.0786 124.511 29.6248 124.683 29.2338C124.862 28.8362 125.087 28.5049 125.359 28.2399C125.631 27.9748 125.929 27.7761 126.253 27.6435C126.585 27.511 126.903 27.4448 127.208 27.4448C127.413 27.4448 127.602 27.4746 127.774 27.5342C127.946 27.5872 128.092 27.6469 128.211 27.7131C128.337 27.7794 128.433 27.8423 128.5 27.902C128.566 27.955 128.602 27.9848 128.609 27.9914C128.682 28.0776 128.718 28.167 128.718 28.2598C128.718 28.3592 128.682 28.4486 128.609 28.5281C128.536 28.601 128.45 28.6375 128.351 28.6375C128.245 28.6375 128.155 28.601 128.082 28.5281C128.069 28.5149 128.039 28.4917 127.993 28.4586C127.946 28.4188 127.883 28.379 127.804 28.3393C127.724 28.2995 127.628 28.2664 127.516 28.2399C127.41 28.2068 127.287 28.1902 127.148 28.1902C126.942 28.1902 126.724 28.2366 126.492 28.3293C126.26 28.4221 126.048 28.5679 125.856 28.7667C125.664 28.9588 125.501 29.204 125.369 29.5022C125.243 29.7937 125.18 30.1416 125.18 30.5458C125.18 30.6717 125.193 30.8009 125.22 30.9334C125.246 31.0593 125.293 31.1753 125.359 31.2813C125.425 31.3873 125.515 31.4735 125.627 31.5397C125.74 31.606 125.879 31.6391 126.045 31.6391C126.164 31.6391 126.3 31.5993 126.452 31.5198C126.611 31.4403 126.76 31.3177 126.899 31.1521C127.045 30.9864 127.174 30.7777 127.287 30.5259C127.406 30.2741 127.489 29.9759 127.536 29.6314C127.549 29.5386 127.592 29.4624 127.665 29.4028C127.738 29.3365 127.824 29.3034 127.923 29.3034C128.016 29.3034 128.095 29.3398 128.162 29.4127C128.235 29.4856 128.274 29.5684 128.281 29.6612C128.288 29.7871 128.301 29.966 128.321 30.1979C128.341 30.4232 128.384 30.6485 128.45 30.8738C128.523 31.0991 128.629 31.2945 128.768 31.4602C128.907 31.6259 129.099 31.7087 129.344 31.7087C129.503 31.7087 129.659 31.6656 129.812 31.5795C129.971 31.4933 130.123 31.3807 130.269 31.2415C130.421 31.0958 130.564 30.9334 130.696 30.7545C130.835 30.569 130.961 30.3835 131.074 30.1979C131.187 30.0124 131.286 29.8335 131.372 29.6612C131.458 29.4889 131.531 29.3398 131.591 29.2139C131.624 29.141 131.67 29.0847 131.73 29.045C131.796 29.0052 131.866 28.9853 131.939 28.9853C132.051 28.9853 132.141 29.0284 132.207 29.1145C132.28 29.1941 132.316 29.2802 132.316 29.373C132.316 29.4193 132.306 29.4657 132.286 29.5121ZM132.704 28.6076C132.664 28.7137 132.614 28.8329 132.555 28.9655C132.502 29.098 132.439 29.2371 132.366 29.3829C132.306 29.4955 132.243 29.585 132.177 29.6513C132.118 29.7109 132.038 29.7407 131.939 29.7407C131.826 29.7407 131.737 29.7076 131.67 29.6413C131.604 29.5684 131.571 29.4856 131.571 29.3928C131.571 29.3597 131.574 29.3332 131.581 29.3133C131.587 29.2868 131.604 29.2471 131.63 29.1941C131.803 28.8627 131.929 28.5745 132.008 28.3293C132.094 28.0776 132.164 27.8158 132.217 27.5441C132.171 27.3917 132.137 27.2625 132.118 27.1565C132.098 27.0505 132.088 26.9412 132.088 26.8285C132.088 26.6099 132.134 26.4343 132.227 26.3017C132.32 26.1626 132.449 26.093 132.614 26.093C132.767 26.093 132.886 26.1593 132.972 26.2918C133.065 26.4243 133.111 26.5867 133.111 26.7788C133.111 26.8848 133.101 26.9909 133.082 27.0969C133.062 27.2029 133.035 27.3354 133.002 27.4944C133.154 27.8721 133.307 28.2068 133.459 28.4983C133.612 28.7899 133.748 29.0582 133.867 29.3034C133.986 29.5419 134.082 29.7672 134.155 29.9793C134.235 30.1913 134.274 30.4033 134.274 30.6154C134.274 30.8937 134.218 31.1587 134.105 31.4105C133.993 31.6623 133.807 31.8743 133.549 32.0466C133.582 32.0532 133.615 32.0566 133.648 32.0566C133.681 32.0566 133.714 32.0566 133.748 32.0566C134.125 32.0566 134.473 31.9704 134.791 31.7981C135.109 31.6259 135.394 31.4039 135.646 31.1322C135.904 30.8539 136.133 30.5491 136.332 30.2178C136.531 29.8799 136.703 29.5452 136.849 29.2139C136.915 29.0615 137.008 28.9853 137.127 28.9853C137.24 28.9853 137.326 29.0251 137.385 29.1046C137.452 29.1841 137.485 29.2703 137.485 29.363C137.485 29.416 137.475 29.4657 137.455 29.5121C137.382 29.691 137.286 29.8964 137.167 30.1283C137.054 30.3536 136.915 30.5889 136.749 30.834C136.59 31.0726 136.405 31.3078 136.193 31.5397C135.981 31.7716 135.742 31.9804 135.477 32.1659C135.219 32.3448 134.934 32.4873 134.622 32.5933C134.311 32.7059 133.97 32.7622 133.598 32.7622C133.154 32.7622 132.74 32.6827 132.356 32.5237C131.978 32.3713 131.67 32.1162 131.432 31.7584C131.392 31.6987 131.372 31.6358 131.372 31.5695C131.372 31.4701 131.409 31.384 131.481 31.3111C131.561 31.2316 131.65 31.1918 131.75 31.1918C131.856 31.1918 131.945 31.2283 132.018 31.3012C132.025 31.3144 132.048 31.3376 132.088 31.3707C132.127 31.3973 132.174 31.4304 132.227 31.4701C132.286 31.5033 132.353 31.5331 132.426 31.5596C132.505 31.5861 132.585 31.5993 132.664 31.5993C132.823 31.5993 132.956 31.5662 133.062 31.5C133.174 31.4337 133.264 31.3542 133.33 31.2614C133.396 31.162 133.443 31.0593 133.469 30.9533C133.502 30.8407 133.519 30.7446 133.519 30.6651C133.519 30.4994 133.492 30.3338 133.439 30.1681C133.386 30.0024 133.317 29.8368 133.231 29.6711C133.151 29.5055 133.062 29.3365 132.962 29.1642C132.87 28.9853 132.783 28.7998 132.704 28.6076Z" fill="#CECB5B"/>
<path d="M8.30974 19.8056C3.7204 19.8056 0 16.0852 0 11.4959L0 3.18612H8.30974C12.8991 3.18612 16.6195 6.90652 16.6195 11.4959V19.8056H8.30974Z" fill="#CECB5B"/>
<path d="M27.2131 19.8047C31.1874 19.8047 34.4093 16.5829 34.4093 12.6085V3.18605H24.9869C21.0125 3.18605 17.7906 6.40791 17.7906 10.3823V19.8047H27.2131Z" fill="#CECB5B"/>
<path d="M5.3324 26.3967C5.3324 23.2855 7.85458 20.7633 10.9658 20.7633H16.5993V26.3967C16.5993 29.508 14.0771 32.0302 10.9658 32.0302H5.3324V26.3967Z" fill="#CECB5B"/>
<path d="M23.4533 20.7633C26.5646 20.7633 29.0868 23.2855 29.0868 26.3968L29.0868 32.0306H23.453C20.3417 32.0306 17.8196 29.5084 17.8196 26.3971V20.7633L23.4533 20.7633Z" fill="#CECB5B"/>
</svg>
