<svg width="24" height="24" viewBox="0 0 24 24" fill="none" xmlns="http://www.w3.org/2000/svg">
<path fill-rule="evenodd" clip-rule="evenodd" d="M9.5 9L8 8.5L9.5 8L10 6L10.5 8L12 8.5L10.5 9L10 11L9.5 9Z" fill="white"/>
<path fill-rule="evenodd" clip-rule="evenodd" d="M15.3365 6.44975L14.236 7L15.3177 7.5408L15.75 8.8377L16.1823 7.5408L17.264 7L16.1635 6.44975L15.75 5.044L15.3365 6.44975ZM14.5 5.75L12 7L14.5 8.25L15.75 12L17 8.25L19.5 7L17 5.75L15.75 1.5L14.5 5.75Z" fill="white"/>
<path fill-rule="evenodd" clip-rule="evenodd" d="M2.5 13C2.5 12.7239 2.72386 12.5 3 12.5H6C6.27615 12.5 6.5 12.7239 6.5 13V13.1772C7.11075 12.9595 7.7237 12.7355 7.9336 12.6417C8.14035 12.5492 8.38065 12.5173 8.58305 12.5058C8.79545 12.4938 9.01625 12.5021 9.2102 12.5168C9.4057 12.5316 9.58325 12.5538 9.7115 12.5721C9.7759 12.5813 9.82855 12.5896 9.8656 12.5957C9.8842 12.5988 9.8989 12.6012 9.90925 12.6031L9.9215 12.6053L9.9251 12.6059L9.9268 12.6062C9.9269 12.6062 9.92695 12.6063 9.83695 13.0981L9.9268 12.6062C9.9327 12.6073 9.93865 12.6084 9.94445 12.6097L13.4525 13.382C13.4667 13.3851 13.4808 13.3888 13.4947 13.3932C13.4948 13.3932 13.4946 13.3932 13.4947 13.3932L13.4956 13.3935L13.5009 13.3952L13.5257 13.4025C13.5482 13.4092 13.5823 13.419 13.6262 13.4309C13.7141 13.4548 13.8404 13.4871 13.991 13.5193C14.2965 13.5847 14.6829 13.6461 15.0443 13.6461C15.3633 13.6461 15.6932 13.7618 15.8712 14.0815C16.0255 14.3589 15.9899 14.665 15.9314 14.8784C15.8527 15.1655 15.6829 15.4682 15.4697 15.7157C15.7635 15.6094 16.0892 15.4784 16.4412 15.3367L16.473 15.3239C17.3322 14.978 18.346 14.5698 19.2397 14.4248C20.251 14.2606 20.9842 14.6192 21.3183 15.2592C21.6181 15.8334 21.5468 16.5859 21.0996 17.0359C20.9879 17.1483 20.8166 17.2672 20.6425 17.378C20.4571 17.496 20.2285 17.6294 19.9741 17.771C19.4645 18.0546 18.8334 18.3808 18.1996 18.6963C16.9437 19.3213 15.6293 19.928 15.2134 20.0775C14.5051 20.332 13.6799 20.2503 12.9142 20.1745C12.8918 20.1723 12.8693 20.1701 12.847 20.1679C12.6191 20.1454 12.3907 20.123 12.1569 20.1056C11.1419 20.0301 10.3641 19.7876 9.64275 19.5625L9.63055 19.5587C8.85465 19.3167 8.14245 19.0963 7.18615 19.0585C7.05845 19.0535 6.8021 19.0571 6.5 19.0651V19.75C6.5 20.0261 6.27615 20.25 6 20.25H3C2.72386 20.25 2.5 20.0261 2.5 19.75V13ZM11.0428 15.9664L10.9548 16.4585C10.6987 16.4127 10.5206 16.1782 10.5451 15.9192C10.5697 15.6602 10.7887 15.4634 11.0488 15.4664L13.8809 15.5C13.8831 15.5 13.8852 15.5001 13.8873 15.5001C13.8897 15.5 13.8948 15.4998 13.9022 15.4992C13.9232 15.4973 13.9637 15.4922 14.0204 15.4777C14.1328 15.4491 14.3145 15.3827 14.538 15.226C14.6175 15.1703 14.7122 15.0748 14.7976 14.953C14.8738 14.8443 14.9283 14.735 14.9577 14.6452C14.5259 14.6365 14.0989 14.565 13.7816 14.4971C13.6102 14.4604 13.4659 14.4237 13.3637 14.3959C13.3125 14.382 13.2717 14.3702 13.243 14.3617C13.2333 14.3589 13.2249 14.3564 13.218 14.3543L9.7394 13.5885L9.73735 13.5882C9.7298 13.5869 9.71815 13.5849 9.70275 13.5823C9.67195 13.5772 9.62655 13.5701 9.5702 13.562C9.4569 13.5459 9.30215 13.5266 9.1345 13.5139C8.9653 13.501 8.79215 13.4955 8.63965 13.5042C8.47725 13.5134 8.38175 13.5366 8.34185 13.5545C8.0046 13.7053 6.8994 14.0985 6.1657 14.3562C6.01275 14.4099 5.8432 14.3862 5.7109 14.2924C5.5786 14.1987 5.5 14.0466 5.5 13.8845V13.5H3.5V19.25H5.5V18.5802C5.5 18.3108 5.7135 18.0897 5.9828 18.0805C6.4608 18.064 6.9878 18.0499 7.22565 18.0593C8.32045 18.1025 9.1414 18.3586 9.91495 18.5999L9.9283 18.6041C10.6527 18.83 11.336 19.0418 12.231 19.1083C12.4778 19.1266 12.7172 19.1503 12.9427 19.1725L12.9452 19.1728C13.8012 19.2572 14.4023 19.3064 14.8752 19.1364C15.2267 19.0101 16.4885 18.4308 17.754 17.801C18.3809 17.489 18.9969 17.1705 19.4877 16.8973C19.7334 16.7605 19.9433 16.6376 20.1056 16.5343C20.2792 16.4238 20.3649 16.3565 20.3902 16.331C20.4912 16.2294 20.5569 15.9615 20.4319 15.722C20.3413 15.5484 20.0879 15.3002 19.3999 15.4119C18.6278 15.5372 17.7118 15.9032 16.8146 16.2644L16.8041 16.2687C16.3596 16.4476 15.9187 16.625 15.5289 16.7536C15.1513 16.8781 14.7513 16.9821 14.4118 16.962C13.9166 16.9327 13.0417 16.8041 12.3138 16.6877C11.9448 16.6287 11.6053 16.5714 11.3582 16.5289C11.2346 16.5077 11.1339 16.4901 11.0641 16.4779L10.9834 16.4636L10.9553 16.4587C10.9553 16.4587 10.9548 16.4586 11.0428 15.9664Z" fill="white"/>
</svg>
