<svg width="16" height="16" viewBox="0 0 16 16" fill="none" xmlns="http://www.w3.org/2000/svg">
<path fill-rule="evenodd" clip-rule="evenodd" d="M6.33301 6L5.33301 5.66667L6.33301 5.33333L6.66634 4L6.99967 5.33333L7.99967 5.66667L6.99967 6L6.66634 7.33333L6.33301 6Z" fill="black"/>
<path fill-rule="evenodd" clip-rule="evenodd" d="M10.2244 4.29983L9.4907 4.66667L10.2118 5.0272L10.5 5.8918L10.7882 5.0272L11.5093 4.66667L10.7756 4.29983L10.5 3.36267L10.2244 4.29983ZM9.66667 3.83333L8 4.66667L9.66667 5.5L10.5 8L11.3333 5.5L13 4.66667L11.3333 3.83333L10.5 1L9.66667 3.83333Z" fill="black"/>
<path fill-rule="evenodd" clip-rule="evenodd" d="M1.66699 8.66667C1.66699 8.48257 1.81623 8.33334 2.00033 8.33334H4.00033C4.18443 8.33334 4.33366 8.48257 4.33366 8.66667V8.78484C4.74083 8.63967 5.14946 8.49034 5.28939 8.42777C5.42723 8.3661 5.58743 8.34484 5.72236 8.3372C5.86396 8.32917 6.01116 8.3347 6.14046 8.3445C6.27079 8.3544 6.38916 8.36917 6.47466 8.38137C6.51759 8.3875 6.55269 8.39304 6.57739 8.39714C6.58979 8.39917 6.59959 8.40084 6.60649 8.40207L6.61466 8.4035L6.61706 8.40394L6.61819 8.40414C6.61826 8.40414 6.61829 8.40417 6.55829 8.73204L6.61819 8.40414C6.62213 8.40484 6.62609 8.40564 6.62996 8.4065L8.96869 8.92134C8.97816 8.9234 8.98753 8.9259 8.99679 8.9288C8.99683 8.92884 8.99673 8.9288 8.99679 8.9288L8.99736 8.929L9.00096 8.9301L9.01746 8.93504C9.03246 8.93947 9.05519 8.946 9.08443 8.95394C9.14306 8.9699 9.22729 8.99137 9.32769 9.01287C9.53136 9.05647 9.78893 9.0974 10.0299 9.0974C10.2425 9.0974 10.4625 9.1745 10.5811 9.38764C10.684 9.57257 10.6603 9.7767 10.6213 9.91894C10.5688 10.1103 10.4556 10.3122 10.3135 10.4772C10.5094 10.4063 10.7265 10.3189 10.9611 10.2245L10.9824 10.2159C11.5551 9.98534 12.231 9.71324 12.8268 9.61654C13.501 9.5071 13.9898 9.74614 14.2126 10.1728C14.4124 10.5556 14.3649 11.0573 14.0667 11.3573C13.9923 11.4322 13.8781 11.5114 13.762 11.5853C13.6384 11.664 13.486 11.753 13.3164 11.8474C12.9767 12.0364 12.5559 12.2539 12.1334 12.4642C11.2961 12.8809 10.4199 13.2853 10.1426 13.385C9.67039 13.5547 9.12026 13.5002 8.60976 13.4497C8.59483 13.4482 8.57989 13.4468 8.56502 13.4453C8.41306 13.4303 8.26079 13.4153 8.10493 13.4037C7.42823 13.3534 6.90973 13.1917 6.42883 13.0417L6.42069 13.0391C5.90343 12.8778 5.42863 12.7309 4.79109 12.7057C4.70596 12.7023 4.53506 12.7047 4.33366 12.71V13.1667C4.33366 13.3508 4.18443 13.5 4.00033 13.5H2.00033C1.81623 13.5 1.66699 13.3508 1.66699 13.1667V8.66667ZM7.36222 10.6443L7.30352 10.9724C7.13282 10.9418 7.01403 10.7855 7.03039 10.6128C7.04676 10.4402 7.19276 10.3089 7.36619 10.3109L9.25426 10.3334C9.25569 10.3334 9.25712 10.3334 9.25852 10.3334C9.26016 10.3334 9.26349 10.3332 9.26843 10.3328C9.28243 10.3315 9.30946 10.3281 9.34726 10.3185C9.42219 10.2994 9.54332 10.2551 9.69236 10.1506C9.74536 10.1135 9.80843 10.0499 9.86536 9.9687C9.91616 9.89624 9.95253 9.82337 9.97209 9.76347C9.68426 9.7577 9.39962 9.71004 9.18809 9.66474C9.07379 9.64027 8.97763 9.61577 8.90946 9.59724C8.87536 9.58797 8.84809 9.58014 8.82899 9.5745C8.82249 9.5726 8.81689 9.57094 8.81233 9.56954L6.49326 9.05904L6.49189 9.0588C6.48686 9.05794 6.47909 9.0566 6.46883 9.0549C6.44829 9.0515 6.41803 9.0467 6.38046 9.04134C6.30493 9.03057 6.20176 9.01774 6.08999 9.00927C5.97719 9.0007 5.86176 8.99704 5.76009 9.0028C5.65183 9.00894 5.58816 9.02444 5.56156 9.03634C5.33673 9.1369 4.59993 9.399 4.11079 9.57084C4.00883 9.60664 3.89579 9.5908 3.80759 9.5283C3.71939 9.4658 3.66699 9.3644 3.66699 9.25634V9H2.33366V12.8333H3.66699V12.3868C3.66699 12.2072 3.80933 12.0598 3.98886 12.0537C4.30753 12.0427 4.65886 12.0333 4.81743 12.0395C5.54729 12.0684 6.09459 12.2391 6.61029 12.3999L6.61919 12.4027C7.10216 12.5534 7.55769 12.6945 8.15436 12.7389C8.31886 12.7511 8.47843 12.7668 8.62879 12.7817L8.63046 12.7818C9.20116 12.8381 9.60186 12.8709 9.91713 12.7576C10.1514 12.6734 10.9927 12.2872 11.8364 11.8673C12.2543 11.6593 12.665 11.447 12.9921 11.2649C13.156 11.1737 13.2959 11.0917 13.4041 11.0229C13.5198 10.9492 13.577 10.9043 13.5938 10.8873C13.6612 10.8196 13.7049 10.641 13.6216 10.4814C13.5612 10.3656 13.3922 10.2001 12.9336 10.2746C12.4188 10.3581 11.8082 10.6021 11.2101 10.8429L11.203 10.8458C10.9067 10.965 10.6128 11.0834 10.3529 11.1691C10.1012 11.2521 9.83449 11.3214 9.60819 11.308C9.27803 11.2884 8.69476 11.2027 8.20949 11.1251C7.96349 11.0858 7.73719 11.0476 7.57246 11.0193C7.49003 11.0052 7.42296 10.9934 7.37643 10.9853L7.32263 10.9758L7.30389 10.9724C7.30389 10.9724 7.30352 10.9724 7.36222 10.6443Z" fill="black"/>
</svg>
