<svg width="16" height="16" viewBox="0 0 16 16" fill="none" xmlns="http://www.w3.org/2000/svg">
<g clip-path="url(#clip0_359_245)">
<path d="M0.70166 15.3333L1.7326 11.567C1.09644 10.4646 0.76216 9.21485 0.762771 7.93335C0.764605 3.9269 4.02488 0.666626 8.03072 0.666626C9.97466 0.667237 11.7994 1.4244 13.172 2.79818C14.5439 4.17196 15.2993 5.99796 15.2987 7.94007C15.2968 11.9471 12.0365 15.2074 8.03072 15.2074C6.81461 15.2068 5.61622 14.9018 4.55472 14.3225L0.70166 15.3333V15.3333ZM4.73316 13.0068C5.75738 13.6148 6.73516 13.9791 8.02827 13.9797C11.3576 13.9797 14.0697 11.27 14.0716 7.93885C14.0728 4.60096 11.3735 1.89496 8.03316 1.89374C4.70138 1.89374 1.9911 4.6034 1.98988 7.93396C1.98927 9.29368 2.38772 10.3118 3.05688 11.377L2.44638 13.6063L4.73316 13.0068V13.0068ZM11.6919 9.66768C11.6467 9.5919 11.5257 9.54668 11.3436 9.45563C11.1621 9.36457 10.2692 8.92518 10.1024 8.86468C9.93616 8.80418 9.81516 8.77363 9.69355 8.95574C9.57255 9.13724 9.22422 9.54668 9.11849 9.66768C9.01277 9.78868 8.90644 9.80396 8.72494 9.7129C8.54344 9.62185 7.95799 9.43057 7.26438 8.81152C6.72477 8.32996 6.35994 7.73535 6.25422 7.55324C6.14849 7.37174 6.24322 7.27335 6.33366 7.1829C6.41555 7.10163 6.51516 6.97085 6.60622 6.86452C6.69849 6.7594 6.72844 6.68363 6.78955 6.56202C6.85005 6.44102 6.82011 6.33468 6.77427 6.24363C6.72844 6.15318 6.36544 5.25913 6.21449 4.89552C6.06661 4.54168 5.91688 4.58935 5.80566 4.58385L5.45733 4.57774C5.33633 4.57774 5.13955 4.62296 4.97333 4.80507C4.8071 4.98718 4.33777 5.42596 4.33777 6.32002C4.33777 7.21407 4.9886 8.07757 5.07905 8.19857C5.1701 8.31957 6.35933 10.1541 8.18105 10.9406C8.61433 11.1276 8.95288 11.2395 9.21627 11.3232C9.65138 11.4613 10.0474 11.4417 10.3603 11.3953C10.7092 11.3433 11.4346 10.9559 11.5862 10.5318C11.7377 10.1071 11.7377 9.74346 11.6919 9.66768V9.66768Z" fill="#1B1B1B"/>
</g>
<defs>
<clipPath id="clip0_359_245">
<rect width="14.6667" height="14.6667" fill="white" transform="translate(0.666748 0.666626)"/>
</clipPath>
</defs>
</svg>
