<svg width="24" height="24" viewBox="0 0 24 24" fill="none" xmlns="http://www.w3.org/2000/svg">
<path d="M1.05225 23L2.59866 17.3506C1.64441 15.6969 1.143 13.8223 1.14391 11.9001C1.14666 5.89042 6.03708 1 12.0458 1C14.9617 1.00092 17.6989 2.13667 19.7577 4.19733C21.8157 6.258 22.9487 8.997 22.9477 11.9102C22.945 17.9208 18.0546 22.8112 12.0458 22.8112C10.2217 22.8103 8.42408 22.3528 6.83183 21.4838L1.05225 23V23ZM7.0995 19.5103C8.63583 20.4223 10.1025 20.9687 12.0422 20.9696C17.0362 20.9696 21.1043 16.9051 21.1071 11.9083C21.1089 6.9015 17.06 2.8425 12.0495 2.84067C7.05183 2.84067 2.98641 6.90517 2.98458 11.901C2.98366 13.9406 3.58133 15.4677 4.58508 17.0655L3.66933 20.4095L7.0995 19.5103V19.5103ZM17.5376 14.5016C17.4697 14.3879 17.2882 14.3201 17.0151 14.1835C16.7428 14.0469 15.4036 13.3878 15.1533 13.2971C14.904 13.2063 14.7225 13.1605 14.5401 13.4337C14.3586 13.7059 13.8361 14.3201 13.6775 14.5016C13.5189 14.6831 13.3594 14.706 13.0872 14.5694C12.8149 14.4328 11.9367 14.1459 10.8963 13.2173C10.0869 12.495 9.53966 11.6031 9.38108 11.3299C9.2225 11.0577 9.36458 10.9101 9.50025 10.7744C9.62308 10.6525 9.7725 10.4563 9.90908 10.2968C10.0475 10.1392 10.0924 10.0255 10.1841 9.84308C10.2748 9.66158 10.2299 9.50208 10.1612 9.3655C10.0924 9.22983 9.54791 7.88875 9.3215 7.34333C9.09966 6.81258 8.87508 6.88408 8.70825 6.87583L8.18575 6.86667C8.00425 6.86667 7.70908 6.9345 7.45975 7.20767C7.21041 7.48083 6.50641 8.139 6.50641 9.48008C6.50641 10.8212 7.48266 12.1164 7.61833 12.2979C7.75491 12.4794 9.53875 15.2313 12.2713 16.411C12.9212 16.6915 13.4291 16.8593 13.8242 16.9848C14.4768 17.192 15.0708 17.1627 15.5402 17.093C16.0636 17.0151 17.1517 16.4339 17.379 15.7977C17.6063 15.1607 17.6063 14.6153 17.5376 14.5016V14.5016Z" fill="#1B1B1B"/>
</svg>
