<svg width="24" height="24" viewBox="0 0 24 24" fill="none" xmlns="http://www.w3.org/2000/svg">
<g clip-path="url(#clip0_201_450)">
<path d="M0.952393 24L2.63939 17.837C1.59839 16.033 1.05139 13.988 1.05239 11.891C1.05539 5.335 6.39039 0 12.9454 0C16.1264 0.001 19.1124 1.24 21.3584 3.488C23.6034 5.736 24.8394 8.724 24.8384 11.902C24.8354 18.459 19.5004 23.794 12.9454 23.794C10.9554 23.793 8.99439 23.294 7.25739 22.346L0.952393 24V24ZM7.54939 20.193C9.22539 21.188 10.8254 21.784 12.9414 21.785C18.3894 21.785 22.8274 17.351 22.8304 11.9C22.8324 6.438 18.4154 2.01 12.9494 2.008C7.49739 2.008 3.06239 6.442 3.06039 11.892C3.05939 14.117 3.71139 15.783 4.80639 17.526L3.80739 21.174L7.54939 20.193V20.193ZM18.9364 14.729C18.8624 14.605 18.6644 14.531 18.3664 14.382C18.0694 14.233 16.6084 13.514 16.3354 13.415C16.0634 13.316 15.8654 13.266 15.6664 13.564C15.4684 13.861 14.8984 14.531 14.7254 14.729C14.5524 14.927 14.3784 14.952 14.0814 14.803C13.7844 14.654 12.8264 14.341 11.6914 13.328C10.8084 12.54 10.2114 11.567 10.0384 11.269C9.86539 10.972 10.0204 10.811 10.1684 10.663C10.3024 10.53 10.4654 10.316 10.6144 10.142C10.7654 9.97 10.8144 9.846 10.9144 9.647C11.0134 9.449 10.9644 9.275 10.8894 9.126C10.8144 8.978 10.2204 7.515 9.97339 6.92C9.73139 6.341 9.48639 6.419 9.30439 6.41L8.73439 6.4C8.53639 6.4 8.21439 6.474 7.94239 6.772C7.67039 7.07 6.90239 7.788 6.90239 9.251C6.90239 10.714 7.96739 12.127 8.11539 12.325C8.26439 12.523 10.2104 15.525 13.1914 16.812C13.9004 17.118 14.4544 17.301 14.8854 17.438C15.5974 17.664 16.2454 17.632 16.7574 17.556C17.3284 17.471 18.5154 16.837 18.7634 16.143C19.0114 15.448 19.0114 14.853 18.9364 14.729V14.729Z" fill="#EEEEE6"/>
</g>
<defs>
<clipPath id="clip0_201_450">
<rect width="24" height="24" fill="white" transform="translate(0.895508)"/>
</clipPath>
</defs>
</svg>
